<?xml version="1.0" encoding="UTF-8" standalone="no"?>
<!DOCTYPE svg PUBLIC "-//W3C//DTD SVG 1.1//EN"
 "http://www.w3.org/Graphics/SVG/1.1/DTD/svg11.dtd">
<!-- Generated by graphviz version 2.26.3 (20100126.1600)
 -->
<!-- Title: SymfonyComponents Pages: 1 -->
<svg width="762pt" height="1529pt"
 viewBox="0.00 0.00 762.00 1529.00" xmlns="http://www.w3.org/2000/svg" xmlns:xlink="http://www.w3.org/1999/xlink">
<g id="graph1" class="graph" transform="scale(1 1) rotate(0) translate(4 1525)">
<title>SymfonyComponents</title>
<polygon fill="white" stroke="white" points="-4,5 -4,-1525 759,-1525 759,5 -4,5"/>
<!-- Drupal -->
<g id="node1" class="node"><title>Drupal</title>
<ellipse fill="none" stroke="black" cx="385" cy="-1152" rx="44.0472" ry="18.3848"/>
<text text-anchor="middle" x="385" y="-1148.4" font-family="Times Roman,serif" font-size="14.00">Drupal</text>
</g>
<!-- ClassLoader -->
<g id="node3" class="node"><title>ClassLoader</title>
<ellipse fill="none" stroke="black" cx="640" cy="-1368" rx="70.0036" ry="18.3848"/>
<text text-anchor="middle" x="640" y="-1364.4" font-family="Times Roman,serif" font-size="14.00">ClassLoader</text>
</g>
<!-- Drupal&#45;&gt;ClassLoader -->
<g id="edge2" class="edge"><title>Drupal&#45;&gt;ClassLoader</title>
<path fill="none" stroke="black" d="M393.001,-1169.86C410.955,-1207.77 458.253,-1296.5 526,-1341 537.833,-1348.77 551.659,-1354.31 565.519,-1358.26"/>
<polygon fill="black" stroke="black" points="565.032,-1361.75 575.59,-1360.87 566.784,-1354.98 565.032,-1361.75"/>
</g>
<!-- DependencyInjection -->
<g id="node5" class="node"><title>DependencyInjection</title>
<ellipse fill="none" stroke="black" cx="640" cy="-1422" rx="113.844" ry="18.3848"/>
<text text-anchor="middle" x="640" y="-1418.4" font-family="Times Roman,serif" font-size="14.00">DependencyInjection</text>
</g>
<!-- Drupal&#45;&gt;DependencyInjection -->
<g id="edge4" class="edge"><title>Drupal&#45;&gt;DependencyInjection</title>
<path fill="none" stroke="black" d="M390.001,-1169.99C403.6,-1215.42 445.727,-1335.38 526,-1395 531.894,-1399.38 538.391,-1403.06 545.206,-1406.15"/>
<polygon fill="black" stroke="black" points="544.087,-1409.47 554.668,-1410.01 546.732,-1402.99 544.087,-1409.47"/>
</g>
<!-- EventDispatcher -->
<g id="node7" class="node"><title>EventDispatcher</title>
<ellipse fill="none" stroke="black" cx="640" cy="-504" rx="92.1303" ry="18.3848"/>
<text text-anchor="middle" x="640" y="-500.4" font-family="Times Roman,serif" font-size="14.00">EventDispatcher</text>
</g>
<!-- Drupal&#45;&gt;EventDispatcher -->
<g id="edge6" class="edge"><title>Drupal&#45;&gt;EventDispatcher</title>
<path fill="none" stroke="black" d="M429.71,-1152.05C451.256,-1149.56 475.506,-1142.57 490,-1125 574.159,-1022.99 440.869,-632.197 526,-531 531.386,-524.598 537.984,-519.556 545.265,-515.603"/>
<polygon fill="black" stroke="black" points="547.227,-518.551 554.815,-511.157 544.272,-512.205 547.227,-518.551"/>
</g>
<!-- HttpFoundation -->
<g id="node9" class="node"><title>HttpFoundation</title>
<ellipse fill="none" stroke="black" cx="640" cy="-612" rx="87.889" ry="18.3848"/>
<text text-anchor="middle" x="640" y="-608.4" font-family="Times Roman,serif" font-size="14.00">HttpFoundation</text>
</g>
<!-- Drupal&#45;&gt;HttpFoundation -->
<g id="edge8" class="edge"><title>Drupal&#45;&gt;HttpFoundation</title>
<path fill="none" stroke="black" d="M429.613,-1151.97C451.132,-1149.46 475.389,-1142.47 490,-1125 559.478,-1041.93 455.731,-721.403 526,-639 532.057,-631.897 539.607,-626.473 547.92,-622.354"/>
<polygon fill="black" stroke="black" points="549.389,-625.532 557.204,-618.379 546.634,-619.097 549.389,-625.532"/>
</g>
<!-- HttpKernel -->
<g id="node11" class="node"><title>HttpKernel</title>
<ellipse fill="none" stroke="black" cx="640" cy="-828" rx="63.8479" ry="18.3848"/>
<text text-anchor="middle" x="640" y="-824.4" font-family="Times Roman,serif" font-size="14.00">HttpKernel</text>
</g>
<!-- Drupal&#45;&gt;HttpKernel -->
<g id="edge10" class="edge"><title>Drupal&#45;&gt;HttpKernel</title>
<path fill="none" stroke="black" d="M429.722,-1151.54C451,-1148.88 475.008,-1141.89 490,-1125 570.356,-1034.45 444.782,-944.775 526,-855 536.41,-843.493 550.739,-836.447 565.728,-832.225"/>
<polygon fill="black" stroke="black" points="566.735,-835.582 575.638,-829.839 565.096,-828.777 566.735,-835.582"/>
</g>
<!-- Routing -->
<g id="node13" class="node"><title>Routing</title>
<ellipse fill="none" stroke="black" cx="640" cy="-774" rx="48.9975" ry="18.3848"/>
<text text-anchor="middle" x="640" y="-770.4" font-family="Times Roman,serif" font-size="14.00">Routing</text>
</g>
<!-- Drupal&#45;&gt;Routing -->
<g id="edge12" class="edge"><title>Drupal&#45;&gt;Routing</title>
<path fill="none" stroke="black" d="M429.613,-1151.71C450.997,-1149.11 475.132,-1142.13 490,-1125 584.977,-1015.59 429.981,-909.5 526,-801 539.664,-785.56 560.383,-778.114 580.426,-774.752"/>
<polygon fill="black" stroke="black" points="581.055,-778.199 590.49,-773.379 580.108,-771.263 581.055,-778.199"/>
</g>
<!-- Serializer -->
<g id="node15" class="node"><title>Serializer</title>
<ellipse fill="none" stroke="black" cx="640" cy="-1152" rx="57.9828" ry="18.3848"/>
<text text-anchor="middle" x="640" y="-1148.4" font-family="Times Roman,serif" font-size="14.00">Serializer</text>
</g>
<!-- Drupal&#45;&gt;Serializer -->
<g id="edge14" class="edge"><title>Drupal&#45;&gt;Serializer</title>
<path fill="none" stroke="black" d="M429.709,-1152C468.934,-1152 526.576,-1152 571.596,-1152"/>
<polygon fill="black" stroke="black" points="571.872,-1155.5 581.872,-1152 571.872,-1148.5 571.872,-1155.5"/>
</g>
<!-- Validator -->
<g id="node17" class="node"><title>Validator</title>
<ellipse fill="none" stroke="black" cx="640" cy="-1206" rx="55.1543" ry="18.3848"/>
<text text-anchor="middle" x="640" y="-1202.4" font-family="Times Roman,serif" font-size="14.00">Validator</text>
</g>
<!-- Drupal&#45;&gt;Validator -->
<g id="edge16" class="edge"><title>Drupal&#45;&gt;Validator</title>
<path fill="none" stroke="black" d="M424.564,-1160.38C467.14,-1169.39 535.224,-1183.81 583.446,-1194.02"/>
<polygon fill="black" stroke="black" points="582.91,-1197.49 593.418,-1196.14 584.36,-1190.64 582.91,-1197.49"/>
</g>
<!-- Yaml -->
<g id="node19" class="node"><title>Yaml</title>
<ellipse fill="none" stroke="black" cx="640" cy="-1476" rx="33.9411" ry="18.3848"/>
<text text-anchor="middle" x="640" y="-1472.4" font-family="Times Roman,serif" font-size="14.00">Yaml</text>
</g>
<!-- Drupal&#45;&gt;Yaml -->
<g id="edge18" class="edge"><title>Drupal&#45;&gt;Yaml</title>
<path fill="none" stroke="black" d="M387.994,-1170.02C397.626,-1222.06 432.801,-1373.63 526,-1449 545.543,-1464.81 572.782,-1471.64 595.733,-1474.49"/>
<polygon fill="black" stroke="black" points="595.629,-1478 605.933,-1475.53 596.342,-1471.03 595.629,-1478"/>
</g>
<!-- phpBB -->
<g id="node20" class="node"><title>phpBB</title>
<ellipse fill="none" stroke="black" cx="385" cy="-504" rx="43.8406" ry="18.3848"/>
<text text-anchor="middle" x="385" y="-500.4" font-family="Times Roman,serif" font-size="14.00">phpBB</text>
</g>
<!-- phpBB&#45;&gt;DependencyInjection -->
<g id="edge30" class="edge"><title>phpBB&#45;&gt;DependencyInjection</title>
<path fill="none" stroke="black" d="M423.199,-513.167C446.697,-520.95 475.081,-534.693 490,-558 540.184,-636.4 466.703,-1323.24 526,-1395 529.603,-1399.36 533.77,-1403.09 538.333,-1406.28"/>
<polygon fill="black" stroke="black" points="536.567,-1409.3 546.942,-1411.45 540.171,-1403.3 536.567,-1409.3"/>
</g>
<!-- phpBB&#45;&gt;EventDispatcher -->
<g id="edge34" class="edge"><title>phpBB&#45;&gt;EventDispatcher</title>
<path fill="none" stroke="black" d="M429.126,-504C458.961,-504 499.642,-504 537.316,-504"/>
<polygon fill="black" stroke="black" points="537.333,-507.5 547.333,-504 537.333,-500.5 537.333,-507.5"/>
</g>
<!-- phpBB&#45;&gt;HttpFoundation -->
<g id="edge40" class="edge"><title>phpBB&#45;&gt;HttpFoundation</title>
<path fill="none" stroke="black" d="M414.698,-517.617C436.136,-527.841 465.5,-542.665 490,-558 506.953,-568.611 507.888,-576.517 526,-585 537.118,-590.208 549.332,-594.46 561.505,-597.919"/>
<polygon fill="black" stroke="black" points="560.673,-601.32 571.238,-600.526 562.484,-594.558 560.673,-601.32"/>
</g>
<!-- phpBB&#45;&gt;HttpKernel -->
<g id="edge42" class="edge"><title>phpBB&#45;&gt;HttpKernel</title>
<path fill="none" stroke="black" d="M422.4,-513.708C445.57,-521.714 473.889,-535.5 490,-558 553.564,-646.767 452.168,-720.571 526,-801 536.493,-812.431 550.856,-819.446 565.851,-823.663"/>
<polygon fill="black" stroke="black" points="565.22,-827.111 575.761,-826.048 566.858,-820.306 565.22,-827.111"/>
</g>
<!-- phpBB&#45;&gt;Routing -->
<g id="edge46" class="edge"><title>phpBB&#45;&gt;Routing</title>
<path fill="none" stroke="black" d="M422.092,-513.933C445.136,-522.032 473.429,-535.837 490,-558 541.204,-626.485 466.89,-685.21 526,-747 540.072,-761.71 560.567,-769.045 580.311,-772.523"/>
<polygon fill="black" stroke="black" points="579.818,-775.988 590.219,-773.973 580.831,-769.062 579.818,-775.988"/>
</g>
<!-- phpBB&#45;&gt;Yaml -->
<g id="edge48" class="edge"><title>phpBB&#45;&gt;Yaml</title>
<path fill="none" stroke="black" d="M423.219,-513.154C446.726,-520.932 475.111,-534.673 490,-558 543.307,-641.519 462.984,-1372.54 526,-1449 542.695,-1469.26 571.532,-1475.95 596.024,-1477.61"/>
<polygon fill="black" stroke="black" points="596.069,-1481.11 606.207,-1478.04 596.362,-1474.12 596.069,-1481.11"/>
</g>
<!-- BrowserKit -->
<g id="node22" class="node"><title>BrowserKit</title>
<ellipse fill="none" stroke="black" cx="640" cy="-180" rx="65.7609" ry="18.3848"/>
<text text-anchor="middle" x="640" y="-176.4" font-family="Times Roman,serif" font-size="14.00">BrowserKit</text>
</g>
<!-- phpBB&#45;&gt;BrowserKit -->
<g id="edge20" class="edge"><title>phpBB&#45;&gt;BrowserKit</title>
<path fill="none" stroke="black" d="M429.191,-503.605C450.599,-500.998 474.883,-494.034 490,-477 570.356,-386.452 444.782,-296.775 526,-207 536.033,-195.909 549.708,-188.962 564.105,-184.694"/>
<polygon fill="black" stroke="black" points="565.317,-187.997 574.151,-182.148 563.598,-181.212 565.317,-187.997"/>
</g>
<!-- Config -->
<g id="node24" class="node"><title>Config</title>
<ellipse fill="none" stroke="black" cx="640" cy="-1044" rx="41.9273" ry="18.3848"/>
<text text-anchor="middle" x="640" y="-1040.4" font-family="Times Roman,serif" font-size="14.00">Config</text>
</g>
<!-- phpBB&#45;&gt;Config -->
<g id="edge22" class="edge"><title>phpBB&#45;&gt;Config</title>
<path fill="none" stroke="black" d="M422.925,-513.345C446.311,-521.203 474.672,-534.96 490,-558 546.67,-643.185 459.444,-939.293 526,-1017 541.03,-1034.55 565.17,-1041.84 587.374,-1044.52"/>
<polygon fill="black" stroke="black" points="587.121,-1048.01 597.401,-1045.45 587.766,-1041.04 587.121,-1048.01"/>
</g>
<!-- Console -->
<g id="node26" class="node"><title>Console</title>
<ellipse fill="none" stroke="black" cx="640" cy="-342" rx="50.2046" ry="18.3848"/>
<text text-anchor="middle" x="640" y="-338.4" font-family="Times Roman,serif" font-size="14.00">Console</text>
</g>
<!-- phpBB&#45;&gt;Console -->
<g id="edge24" class="edge"><title>phpBB&#45;&gt;Console</title>
<path fill="none" stroke="black" d="M428.952,-502.201C449.777,-499.182 473.617,-492.274 490,-477 527.008,-442.498 488.663,-403.147 526,-369 540.698,-355.558 560.833,-348.449 580.095,-344.795"/>
<polygon fill="black" stroke="black" points="580.742,-348.236 590.054,-343.184 579.624,-341.325 580.742,-348.236"/>
</g>
<!-- CssSelector -->
<g id="node28" class="node"><title>CssSelector</title>
<ellipse fill="none" stroke="black" cx="640" cy="-126" rx="67.8823" ry="18.3848"/>
<text text-anchor="middle" x="640" y="-122.4" font-family="Times Roman,serif" font-size="14.00">CssSelector</text>
</g>
<!-- phpBB&#45;&gt;CssSelector -->
<g id="edge26" class="edge"><title>phpBB&#45;&gt;CssSelector</title>
<path fill="none" stroke="black" d="M429.081,-503.774C450.596,-501.229 475.009,-494.27 490,-477 584.977,-367.586 429.981,-261.5 526,-153 535.638,-142.11 548.785,-135.196 562.729,-130.888"/>
<polygon fill="black" stroke="black" points="563.707,-134.25 572.476,-128.305 561.913,-127.483 563.707,-134.25"/>
</g>
<!-- Debug -->
<g id="node30" class="node"><title>Debug</title>
<ellipse fill="none" stroke="black" cx="640" cy="-450" rx="43.8406" ry="18.3848"/>
<text text-anchor="middle" x="640" y="-446.4" font-family="Times Roman,serif" font-size="14.00">Debug</text>
</g>
<!-- phpBB&#45;&gt;Debug -->
<g id="edge28" class="edge"><title>phpBB&#45;&gt;Debug</title>
<path fill="none" stroke="black" d="M424.285,-495.681C469.022,-486.207 542.18,-470.715 590.708,-460.438"/>
<polygon fill="black" stroke="black" points="591.613,-463.824 600.67,-458.329 590.162,-456.976 591.613,-463.824"/>
</g>
<!-- DomCrawler -->
<g id="node33" class="node"><title>DomCrawler</title>
<ellipse fill="none" stroke="black" cx="640" cy="-72" rx="73.0388" ry="18.3848"/>
<text text-anchor="middle" x="640" y="-68.4" font-family="Times Roman,serif" font-size="14.00">DomCrawler</text>
</g>
<!-- phpBB&#45;&gt;DomCrawler -->
<g id="edge32" class="edge"><title>phpBB&#45;&gt;DomCrawler</title>
<path fill="none" stroke="black" d="M429.194,-503.871C450.739,-501.352 475.145,-494.387 490,-477 544.811,-412.846 470.577,-162.626 526,-99 534.433,-89.3187 545.639,-82.7702 557.737,-78.3982"/>
<polygon fill="black" stroke="black" points="559.081,-81.6459 567.595,-75.3402 557.007,-74.9602 559.081,-81.6459"/>
</g>
<!-- Filesystem -->
<g id="node36" class="node"><title>Filesystem</title>
<ellipse fill="none" stroke="black" cx="640" cy="-288" rx="62.2254" ry="18.3848"/>
<text text-anchor="middle" x="640" y="-284.4" font-family="Times Roman,serif" font-size="14.00">Filesystem</text>
</g>
<!-- phpBB&#45;&gt;Filesystem -->
<g id="edge36" class="edge"><title>phpBB&#45;&gt;Filesystem</title>
<path fill="none" stroke="black" d="M429.118,-502.98C450.242,-500.18 474.295,-493.233 490,-477 541.285,-423.992 474.21,-367.515 526,-315 537.354,-303.487 552.65,-296.521 568.345,-292.388"/>
<polygon fill="black" stroke="black" points="569.16,-295.792 578.137,-290.165 567.611,-288.966 569.16,-295.792"/>
</g>
<!-- Finder -->
<g id="node38" class="node"><title>Finder</title>
<ellipse fill="none" stroke="black" cx="640" cy="-234" rx="41.2167" ry="18.3848"/>
<text text-anchor="middle" x="640" y="-230.4" font-family="Times Roman,serif" font-size="14.00">Finder</text>
</g>
<!-- phpBB&#45;&gt;Finder -->
<g id="edge38" class="edge"><title>phpBB&#45;&gt;Finder</title>
<path fill="none" stroke="black" d="M429.226,-503.364C450.509,-500.678 474.671,-493.716 490,-477 555.777,-405.269 459.54,-332.099 526,-261 541.839,-244.056 566.187,-236.85 588.321,-234.068"/>
<polygon fill="black" stroke="black" points="588.689,-237.549 598.297,-233.083 588.001,-230.583 588.689,-237.549"/>
</g>
<!-- Process -->
<g id="node42" class="node"><title>Process</title>
<ellipse fill="none" stroke="black" cx="640" cy="-18" rx="48.0833" ry="18.3848"/>
<text text-anchor="middle" x="640" y="-14.4" font-family="Times Roman,serif" font-size="14.00">Process</text>
</g>
<!-- phpBB&#45;&gt;Process -->
<g id="edge44" class="edge"><title>phpBB&#45;&gt;Process</title>
<path fill="none" stroke="black" d="M429.013,-503.974C450.646,-501.501 475.187,-494.546 490,-477 552.142,-403.39 463.157,-118.012 526,-45 539.854,-28.9042 561.371,-21.4468 581.996,-18.2586"/>
<polygon fill="black" stroke="black" points="582.518,-21.7208 592.012,-17.0173 581.657,-14.7739 582.518,-21.7208"/>
</g>
<!-- Laravel -->
<g id="node45" class="node"><title>Laravel</title>
<ellipse fill="none" stroke="black" cx="385" cy="-450" rx="48.0833" ry="18.3848"/>
<text text-anchor="middle" x="385" y="-446.4" font-family="Times Roman,serif" font-size="14.00">Laravel</text>
</g>
<!-- Laravel&#45;&gt;EventDispatcher -->
<g id="edge60" class="edge"><title>Laravel&#45;&gt;EventDispatcher</title>
<path fill="none" stroke="black" d="M426.823,-458.857C464.865,-466.913 521.848,-478.98 567.332,-488.611"/>
<polygon fill="black" stroke="black" points="566.638,-492.042 577.146,-490.69 568.088,-485.194 566.638,-492.042"/>
</g>
<!-- Laravel&#45;&gt;HttpFoundation -->
<g id="edge66" class="edge"><title>Laravel&#45;&gt;HttpFoundation</title>
<path fill="none" stroke="black" d="M432.656,-452.373C452.556,-455.66 474.581,-462.625 490,-477 527.008,-511.502 488.663,-550.853 526,-585 533.185,-591.571 541.669,-596.629 550.715,-600.509"/>
<polygon fill="black" stroke="black" points="549.723,-603.876 560.315,-604.141 552.2,-597.329 549.723,-603.876"/>
</g>
<!-- Laravel&#45;&gt;HttpKernel -->
<g id="edge68" class="edge"><title>Laravel&#45;&gt;HttpKernel</title>
<path fill="none" stroke="black" d="M433.096,-450.749C453.574,-453.67 475.934,-460.796 490,-477 584.977,-586.414 429.981,-692.5 526,-801 536.338,-812.682 550.715,-819.788 565.782,-824.011"/>
<polygon fill="black" stroke="black" points="565.208,-827.472 575.748,-826.389 566.833,-820.663 565.208,-827.472"/>
</g>
<!-- Laravel&#45;&gt;Routing -->
<g id="edge74" class="edge"><title>Laravel&#45;&gt;Routing</title>
<path fill="none" stroke="black" d="M433.202,-450.931C453.574,-453.904 475.82,-461.021 490,-477 570.356,-567.548 444.782,-657.225 526,-747 539.774,-762.225 560.411,-769.642 580.357,-773.04"/>
<polygon fill="black" stroke="black" points="579.983,-776.522 590.37,-774.437 580.95,-769.589 579.983,-776.522"/>
</g>
<!-- Laravel&#45;&gt;BrowserKit -->
<g id="edge50" class="edge"><title>Laravel&#45;&gt;BrowserKit</title>
<path fill="none" stroke="black" d="M432.962,-448.852C453.286,-445.836 475.562,-438.745 490,-423 555.777,-351.269 459.54,-278.099 526,-207 536.213,-196.074 549.964,-189.198 564.378,-184.945"/>
<polygon fill="black" stroke="black" points="565.592,-188.248 574.428,-182.403 563.875,-181.462 565.592,-188.248"/>
</g>
<!-- Laravel&#45;&gt;Console -->
<g id="edge52" class="edge"><title>Laravel&#45;&gt;Console</title>
<path fill="none" stroke="black" d="M431.5,-445.465C450.959,-441.775 472.963,-435.092 490,-423 513.522,-406.305 502.319,-385.469 526,-369 541.994,-357.877 561.979,-351.297 580.729,-347.419"/>
<polygon fill="black" stroke="black" points="581.491,-350.837 590.689,-345.578 580.22,-343.954 581.491,-350.837"/>
</g>
<!-- Laravel&#45;&gt;CssSelector -->
<g id="edge54" class="edge"><title>Laravel&#45;&gt;CssSelector</title>
<path fill="none" stroke="black" d="M433.202,-449.069C453.574,-446.096 475.82,-438.979 490,-423 570.356,-332.452 444.782,-242.775 526,-153 535.701,-142.277 548.806,-135.428 562.676,-131.127"/>
<polygon fill="black" stroke="black" points="563.608,-134.501 572.368,-128.541 561.803,-127.737 563.608,-134.501"/>
</g>
<!-- Laravel&#45;&gt;Debug -->
<g id="edge56" class="edge"><title>Laravel&#45;&gt;Debug</title>
<path fill="none" stroke="black" d="M433.263,-450C476.665,-450 540.361,-450 585.563,-450"/>
<polygon fill="black" stroke="black" points="585.771,-453.5 595.771,-450 585.771,-446.5 585.771,-453.5"/>
</g>
<!-- Laravel&#45;&gt;DomCrawler -->
<g id="edge58" class="edge"><title>Laravel&#45;&gt;DomCrawler</title>
<path fill="none" stroke="black" d="M433.096,-449.251C453.574,-446.33 475.934,-439.204 490,-423 584.977,-313.586 429.981,-207.5 526,-99 534.509,-89.3852 545.753,-82.8705 557.866,-78.5115"/>
<polygon fill="black" stroke="black" points="559.212,-81.7588 567.731,-75.4598 557.143,-75.0714 559.212,-81.7588"/>
</g>
<!-- Laravel&#45;&gt;Filesystem -->
<g id="edge62" class="edge"><title>Laravel&#45;&gt;Filesystem</title>
<path fill="none" stroke="black" d="M432.656,-447.627C452.556,-444.34 474.581,-437.375 490,-423 527.008,-388.498 488.663,-349.147 526,-315 537.758,-304.247 552.995,-297.546 568.481,-293.425"/>
<polygon fill="black" stroke="black" points="569.705,-296.735 578.66,-291.073 568.128,-289.915 569.705,-296.735"/>
</g>
<!-- Laravel&#45;&gt;Finder -->
<g id="edge64" class="edge"><title>Laravel&#45;&gt;Finder</title>
<path fill="none" stroke="black" d="M432.842,-448.447C453.02,-445.338 475.211,-438.286 490,-423 541.285,-369.992 474.21,-313.515 526,-261 542.151,-244.623 566.28,-237.446 588.185,-234.537"/>
<polygon fill="black" stroke="black" points="588.81,-237.991 598.385,-233.457 588.072,-231.03 588.81,-237.991"/>
</g>
<!-- Laravel&#45;&gt;Process -->
<g id="edge70" class="edge"><title>Laravel&#45;&gt;Process</title>
<path fill="none" stroke="black" d="M433.214,-449.352C453.715,-446.452 476.062,-439.314 490,-423 544.811,-358.846 470.577,-108.626 526,-45 539.891,-29.0522 561.307,-21.6054 581.841,-18.3847"/>
<polygon fill="black" stroke="black" points="582.332,-21.8506 591.815,-17.1244 581.455,-14.9058 582.332,-21.8506"/>
</g>
<!-- PropertyAccess -->
<g id="node58" class="node"><title>PropertyAccess</title>
<ellipse fill="none" stroke="black" cx="640" cy="-396" rx="85.0596" ry="18.3848"/>
<text text-anchor="middle" x="640" y="-392.4" font-family="Times Roman,serif" font-size="14.00">PropertyAccess</text>
</g>
<!-- Laravel&#45;&gt;PropertyAccess -->
<g id="edge72" class="edge"><title>Laravel&#45;&gt;PropertyAccess</title>
<path fill="none" stroke="black" d="M426.823,-441.143C465.523,-432.948 523.826,-420.602 569.682,-410.891"/>
<polygon fill="black" stroke="black" points="570.504,-414.294 579.562,-408.799 569.054,-407.446 570.504,-414.294"/>
</g>
<!-- Translation -->
<g id="node61" class="node"><title>Translation</title>
<ellipse fill="none" stroke="black" cx="640" cy="-1098" rx="65.0538" ry="18.3848"/>
<text text-anchor="middle" x="640" y="-1094.4" font-family="Times Roman,serif" font-size="14.00">Translation</text>
</g>
<!-- Laravel&#45;&gt;Translation -->
<g id="edge76" class="edge"><title>Laravel&#45;&gt;Translation</title>
<path fill="none" stroke="black" d="M433.204,-450.391C453.833,-453.222 476.285,-460.376 490,-477 574.159,-579.006 440.869,-969.803 526,-1071 535.989,-1082.87 550.148,-1090.07 565.105,-1094.32"/>
<polygon fill="black" stroke="black" points="564.472,-1097.77 575.014,-1096.71 566.112,-1090.96 564.472,-1097.77"/>
</g>
<!-- Symfony Full Stack -->
<g id="node62" class="node"><title>Symfony Full Stack</title>
<ellipse fill="none" stroke="black" cx="385" cy="-733" rx="104.151" ry="18.3848"/>
<text text-anchor="middle" x="385" y="-729.4" font-family="Times Roman,serif" font-size="14.00">Symfony Full Stack</text>
</g>
<!-- Symfony Full Stack&#45;&gt;ClassLoader -->
<g id="edge80" class="edge"><title>Symfony Full Stack&#45;&gt;ClassLoader</title>
<path fill="none" stroke="black" d="M453.094,-746.794C467.389,-752.834 480.88,-761.517 490,-774 564.48,-875.945 444.586,-1244.5 526,-1341 534.971,-1351.63 547.286,-1358.51 560.518,-1362.88"/>
<polygon fill="black" stroke="black" points="559.705,-1366.29 570.28,-1365.64 561.608,-1359.55 559.705,-1366.29"/>
</g>
<!-- Symfony Full Stack&#45;&gt;DependencyInjection -->
<g id="edge90" class="edge"><title>Symfony Full Stack&#45;&gt;DependencyInjection</title>
<path fill="none" stroke="black" d="M453.144,-746.758C467.437,-752.799 480.914,-761.492 490,-774 571.239,-885.84 437.153,-1289.1 526,-1395 529.677,-1399.38 533.922,-1403.13 538.565,-1406.32"/>
<polygon fill="black" stroke="black" points="536.929,-1409.42 547.318,-1411.5 540.492,-1403.4 536.929,-1409.42"/>
</g>
<!-- Symfony Full Stack&#45;&gt;EventDispatcher -->
<g id="edge94" class="edge"><title>Symfony Full Stack&#45;&gt;EventDispatcher</title>
<path fill="none" stroke="black" d="M425.241,-716.253C447.405,-705.087 473.655,-688.337 490,-666 526.67,-615.887 481.48,-574.289 526,-531 532.41,-524.767 539.98,-519.879 548.122,-516.057"/>
<polygon fill="black" stroke="black" points="549.615,-519.227 557.527,-512.18 546.948,-512.756 549.615,-519.227"/>
</g>
<!-- Symfony Full Stack&#45;&gt;HttpFoundation -->
<g id="edge102" class="edge"><title>Symfony Full Stack&#45;&gt;HttpFoundation</title>
<path fill="none" stroke="black" d="M413.455,-715.653C434.795,-702.449 464.579,-683.606 490,-666 506.442,-654.613 507.888,-647.483 526,-639 537.118,-633.792 549.332,-629.54 561.505,-626.081"/>
<polygon fill="black" stroke="black" points="562.484,-629.442 571.238,-623.474 560.673,-622.68 562.484,-629.442"/>
</g>
<!-- Symfony Full Stack&#45;&gt;HttpKernel -->
<g id="edge104" class="edge"><title>Symfony Full Stack&#45;&gt;HttpKernel</title>
<path fill="none" stroke="black" d="M433.812,-748.925C451.95,-755.645 472.388,-764.197 490,-774 507.475,-783.727 507.888,-792.517 526,-801 540.796,-807.93 557.53,-813.169 573.531,-817.097"/>
<polygon fill="black" stroke="black" points="572.842,-820.53 583.374,-819.376 574.421,-813.71 572.842,-820.53"/>
</g>
<!-- Symfony Full Stack&#45;&gt;Routing -->
<g id="edge118" class="edge"><title>Symfony Full Stack&#45;&gt;Routing</title>
<path fill="none" stroke="black" d="M461.508,-745.301C501.031,-751.656 548.38,-759.269 584.377,-765.057"/>
<polygon fill="black" stroke="black" points="584.258,-768.582 594.687,-766.714 585.369,-761.671 584.258,-768.582"/>
</g>
<!-- Symfony Full Stack&#45;&gt;Serializer -->
<g id="edge122" class="edge"><title>Symfony Full Stack&#45;&gt;Serializer</title>
<path fill="none" stroke="black" d="M452.206,-746.823C466.712,-752.864 480.521,-761.54 490,-774 584.95,-898.806 422.57,-1007.13 526,-1125 537.662,-1138.29 554.551,-1145.67 571.771,-1149.62"/>
<polygon fill="black" stroke="black" points="571.431,-1153.12 581.912,-1151.56 572.751,-1146.24 571.431,-1153.12"/>
</g>
<!-- Symfony Full Stack&#45;&gt;Validator -->
<g id="edge130" class="edge"><title>Symfony Full Stack&#45;&gt;Validator</title>
<path fill="none" stroke="black" d="M452.598,-746.846C467.001,-752.885 480.664,-761.555 490,-774 544.219,-846.279 466.868,-1110.68 526,-1179 538.242,-1193.14 556.401,-1200.61 574.646,-1204.37"/>
<polygon fill="black" stroke="black" points="574.307,-1207.86 584.754,-1206.1 575.486,-1200.96 574.307,-1207.86"/>
</g>
<!-- Symfony Full Stack&#45;&gt;Yaml -->
<g id="edge132" class="edge"><title>Symfony Full Stack&#45;&gt;Yaml</title>
<path fill="none" stroke="black" d="M453.185,-746.728C467.477,-752.77 480.943,-761.471 490,-774 578,-895.738 429.718,-1333.7 526,-1449 542.769,-1469.08 571.466,-1475.8 595.871,-1477.51"/>
<polygon fill="black" stroke="black" points="595.875,-1481.02 606.021,-1477.97 596.187,-1474.02 595.875,-1481.02"/>
</g>
<!-- Symfony Full Stack&#45;&gt;BrowserKit -->
<g id="edge78" class="edge"><title>Symfony Full Stack&#45;&gt;BrowserKit</title>
<path fill="none" stroke="black" d="M428.418,-716.529C450.73,-705.694 476.09,-689.176 490,-666 542.651,-578.274 459.444,-284.707 526,-207 535.783,-195.578 549.424,-188.502 563.879,-184.214"/>
<polygon fill="black" stroke="black" points="565.136,-187.507 573.979,-181.671 563.427,-180.719 565.136,-187.507"/>
</g>
<!-- Symfony Full Stack&#45;&gt;Config -->
<g id="edge82" class="edge"><title>Symfony Full Stack&#45;&gt;Config</title>
<path fill="none" stroke="black" d="M451.541,-747.016C466.157,-753.053 480.183,-761.68 490,-774 558.038,-859.386 452.168,-936.571 526,-1017 541.436,-1033.82 565.247,-1041.08 587.123,-1043.93"/>
<polygon fill="black" stroke="black" points="587.026,-1047.44 597.331,-1044.97 587.738,-1040.47 587.026,-1047.44"/>
</g>
<!-- Symfony Full Stack&#45;&gt;Console -->
<g id="edge84" class="edge"><title>Symfony Full Stack&#45;&gt;Console</title>
<path fill="none" stroke="black" d="M427.503,-716.554C449.824,-705.651 475.487,-689.06 490,-666 560.825,-553.466 437.385,-468.133 526,-369 539.625,-353.758 560.126,-346.322 580.003,-342.913"/>
<polygon fill="black" stroke="black" points="580.571,-346.368 589.988,-341.512 579.598,-339.436 580.571,-346.368"/>
</g>
<!-- Symfony Full Stack&#45;&gt;CssSelector -->
<g id="edge86" class="edge"><title>Symfony Full Stack&#45;&gt;CssSelector</title>
<path fill="none" stroke="black" d="M428.493,-716.574C450.827,-705.752 476.185,-689.233 490,-666 548.407,-567.773 452.016,-240.1 526,-153 535.415,-141.916 548.463,-134.918 562.381,-130.587"/>
<polygon fill="black" stroke="black" points="563.357,-133.949 572.122,-127.997 561.558,-127.184 563.357,-133.949"/>
</g>
<!-- Symfony Full Stack&#45;&gt;Debug -->
<g id="edge88" class="edge"><title>Symfony Full Stack&#45;&gt;Debug</title>
<path fill="none" stroke="black" d="M426.38,-716.426C448.633,-705.402 474.595,-688.735 490,-666 537.967,-595.21 466.89,-538.79 526,-477 541.415,-460.886 564.535,-453.623 585.934,-450.584"/>
<polygon fill="black" stroke="black" points="586.397,-454.054 595.934,-449.439 585.601,-447.099 586.397,-454.054"/>
</g>
<!-- Symfony Full Stack&#45;&gt;DomCrawler -->
<g id="edge92" class="edge"><title>Symfony Full Stack&#45;&gt;DomCrawler</title>
<path fill="none" stroke="black" d="M428.554,-716.61C450.907,-705.799 476.263,-689.279 490,-666 554.165,-557.267 444.586,-195.497 526,-99 534.279,-89.1869 545.407,-82.5716 557.475,-78.1737"/>
<polygon fill="black" stroke="black" points="558.814,-81.4224 567.319,-75.1034 556.73,-74.7399 558.814,-81.4224"/>
</g>
<!-- Symfony Full Stack&#45;&gt;Filesystem -->
<g id="edge96" class="edge"><title>Symfony Full Stack&#45;&gt;Filesystem</title>
<path fill="none" stroke="black" d="M427.934,-716.527C450.244,-705.654 475.757,-689.1 490,-666 531.152,-599.258 474.285,-373.937 526,-315 536.831,-302.656 552.171,-295.413 568.097,-291.281"/>
<polygon fill="black" stroke="black" points="569.038,-294.657 578.054,-289.092 567.536,-287.82 569.038,-294.657"/>
</g>
<!-- Symfony Full Stack&#45;&gt;Finder -->
<g id="edge98" class="edge"><title>Symfony Full Stack&#45;&gt;Finder</title>
<path fill="none" stroke="black" d="M428.324,-716.472C450.607,-705.619 475.97,-689.104 490,-666 536.899,-588.77 466.868,-329.318 526,-261 541.352,-243.263 566.011,-236.028 588.474,-233.432"/>
<polygon fill="black" stroke="black" points="588.942,-236.904 598.599,-232.544 588.331,-229.931 588.942,-236.904"/>
</g>
<!-- Symfony Full Stack&#45;&gt;Process -->
<g id="edge114" class="edge"><title>Symfony Full Stack&#45;&gt;Process</title>
<path fill="none" stroke="black" d="M428.604,-716.639C450.972,-705.837 476.327,-689.317 490,-666 559.925,-546.759 437.153,-150.897 526,-45 539.65,-28.7307 561.13,-21.2413 581.781,-18.0761"/>
<polygon fill="black" stroke="black" points="582.314,-21.5372 591.815,-16.8501 581.464,-14.5889 582.314,-21.5372"/>
</g>
<!-- Symfony Full Stack&#45;&gt;PropertyAccess -->
<g id="edge116" class="edge"><title>Symfony Full Stack&#45;&gt;PropertyAccess</title>
<path fill="none" stroke="black" d="M427.268,-716.404C449.516,-705.454 475.183,-688.866 490,-666 549.371,-574.375 452.168,-503.429 526,-423 532.757,-415.639 541.118,-410.11 550.22,-405.979"/>
<polygon fill="black" stroke="black" points="551.521,-409.228 559.536,-402.298 548.949,-402.717 551.521,-409.228"/>
</g>
<!-- Symfony Full Stack&#45;&gt;Translation -->
<g id="edge128" class="edge"><title>Symfony Full Stack&#45;&gt;Translation</title>
<path fill="none" stroke="black" d="M452.044,-746.948C466.555,-752.985 480.406,-761.628 490,-774 571.479,-879.077 437.385,-971.867 526,-1071 536.285,-1082.51 550.489,-1089.56 565.384,-1093.8"/>
<polygon fill="black" stroke="black" points="564.695,-1097.23 575.238,-1096.19 566.347,-1090.43 564.695,-1097.23"/>
</g>
<!-- Form -->
<g id="node75" class="node"><title>Form</title>
<ellipse fill="none" stroke="black" cx="640" cy="-882" rx="36.0624" ry="18.3848"/>
<text text-anchor="middle" x="640" y="-878.4" font-family="Times Roman,serif" font-size="14.00">Form</text>
</g>
<!-- Symfony Full Stack&#45;&gt;Form -->
<g id="edge100" class="edge"><title>Symfony Full Stack&#45;&gt;Form</title>
<path fill="none" stroke="black" d="M446.038,-747.744C461.802,-753.837 477.758,-762.308 490,-774 518.489,-801.209 495.681,-829.846 526,-855 544.868,-870.654 571.242,-877.553 593.871,-880.47"/>
<polygon fill="black" stroke="black" points="593.649,-883.966 603.964,-881.548 594.392,-877.006 593.649,-883.966"/>
</g>
<!-- Icu -->
<g id="node79" class="node"><title>Icu</title>
<ellipse fill="none" stroke="black" cx="640" cy="-720" rx="27" ry="18.3848"/>
<text text-anchor="middle" x="640" y="-716.4" font-family="Times Roman,serif" font-size="14.00">Icu</text>
</g>
<!-- Symfony Full Stack&#45;&gt;Icu -->
<g id="edge106" class="edge"><title>Symfony Full Stack&#45;&gt;Icu</title>
<path fill="none" stroke="black" d="M485.417,-727.881C526.683,-725.777 571.919,-723.471 602.731,-721.9"/>
<polygon fill="black" stroke="black" points="603.19,-725.381 612.999,-721.377 602.833,-718.39 603.19,-725.381"/>
</g>
<!-- Intl -->
<g id="node81" class="node"><title>Intl</title>
<ellipse fill="none" stroke="black" cx="640" cy="-1314" rx="27.7881" ry="18.3848"/>
<text text-anchor="middle" x="640" y="-1310.4" font-family="Times Roman,serif" font-size="14.00">Intl</text>
</g>
<!-- Symfony Full Stack&#45;&gt;Intl -->
<g id="edge108" class="edge"><title>Symfony Full Stack&#45;&gt;Intl</title>
<path fill="none" stroke="black" d="M452.763,-746.723C467.161,-752.766 480.78,-761.468 490,-774 557.724,-866.052 452.016,-1199.9 526,-1287 544.227,-1308.46 576.075,-1314.61 601.484,-1315.72"/>
<polygon fill="black" stroke="black" points="601.498,-1319.23 611.567,-1315.93 601.64,-1312.23 601.498,-1319.23"/>
</g>
<!-- Locale -->
<g id="node83" class="node"><title>Locale</title>
<ellipse fill="none" stroke="black" cx="640" cy="-558" rx="41.9273" ry="18.3848"/>
<text text-anchor="middle" x="640" y="-554.4" font-family="Times Roman,serif" font-size="14.00">Locale</text>
</g>
<!-- Symfony Full Stack&#45;&gt;Locale -->
<g id="edge110" class="edge"><title>Symfony Full Stack&#45;&gt;Locale</title>
<path fill="none" stroke="black" d="M422.187,-716.168C444.255,-704.644 471.453,-687.555 490,-666 515.695,-636.138 495.681,-610.154 526,-585 543.084,-570.826 566.322,-563.83 587.361,-560.468"/>
<polygon fill="black" stroke="black" points="588.038,-563.909 597.476,-559.094 587.096,-556.972 588.038,-563.909"/>
</g>
<!-- OptionsResolver -->
<g id="node85" class="node"><title>OptionsResolver</title>
<ellipse fill="none" stroke="black" cx="640" cy="-990" rx="90.0096" ry="18.3848"/>
<text text-anchor="middle" x="640" y="-986.4" font-family="Times Roman,serif" font-size="14.00">OptionsResolver</text>
</g>
<!-- Symfony Full Stack&#45;&gt;OptionsResolver -->
<g id="edge112" class="edge"><title>Symfony Full Stack&#45;&gt;OptionsResolver</title>
<path fill="none" stroke="black" d="M450.641,-747.081C465.461,-753.122 479.806,-761.734 490,-774 544.653,-839.765 466.89,-901.21 526,-963 532.231,-969.514 539.722,-974.582 547.849,-978.509"/>
<polygon fill="black" stroke="black" points="546.687,-981.817 557.262,-982.474 549.405,-975.366 546.687,-981.817"/>
</g>
<!-- Security -->
<g id="node90" class="node"><title>Security</title>
<ellipse fill="none" stroke="black" cx="640" cy="-936" rx="51.8276" ry="18.3848"/>
<text text-anchor="middle" x="640" y="-932.4" font-family="Times Roman,serif" font-size="14.00">Security</text>
</g>
<!-- Symfony Full Stack&#45;&gt;Security -->
<g id="edge120" class="edge"><title>Symfony Full Stack&#45;&gt;Security</title>
<path fill="none" stroke="black" d="M449.212,-747.276C464.33,-753.325 479.173,-761.892 490,-774 531.39,-820.291 481.48,-865.711 526,-909 539.72,-922.341 558.755,-929.522 577.344,-933.27"/>
<polygon fill="black" stroke="black" points="576.842,-936.735 587.29,-934.974 578.024,-929.836 576.842,-936.735"/>
</g>
<!-- Stopwatch -->
<g id="node93" class="node"><title>Stopwatch</title>
<ellipse fill="none" stroke="black" cx="640" cy="-666" rx="63.8479" ry="18.3848"/>
<text text-anchor="middle" x="640" y="-662.4" font-family="Times Roman,serif" font-size="14.00">Stopwatch</text>
</g>
<!-- Symfony Full Stack&#45;&gt;Stopwatch -->
<g id="edge124" class="edge"><title>Symfony Full Stack&#45;&gt;Stopwatch</title>
<path fill="none" stroke="black" d="M437.746,-717.444C464.168,-709.802 496.696,-700.623 526,-693 543.442,-688.463 562.467,-683.832 579.891,-679.715"/>
<polygon fill="black" stroke="black" points="581.005,-683.049 589.94,-677.356 579.405,-676.234 581.005,-683.049"/>
</g>
<!-- Templating -->
<g id="node95" class="node"><title>Templating</title>
<ellipse fill="none" stroke="black" cx="640" cy="-1260" rx="63.8479" ry="18.3848"/>
<text text-anchor="middle" x="640" y="-1256.4" font-family="Times Roman,serif" font-size="14.00">Templating</text>
</g>
<!-- Symfony Full Stack&#45;&gt;Templating -->
<g id="edge126" class="edge"><title>Symfony Full Stack&#45;&gt;Templating</title>
<path fill="none" stroke="black" d="M452.69,-746.777C467.09,-752.818 480.729,-761.506 490,-774 550.97,-856.163 459.444,-1155.29 526,-1233 536.148,-1244.85 550.448,-1252.02 565.502,-1256.26"/>
<polygon fill="black" stroke="black" points="564.927,-1259.72 575.467,-1258.63 566.552,-1252.91 564.927,-1259.72"/>
</g>
<!-- eZ Publish Community -->
<g id="node99" class="node"><title>eZ Publish Community</title>
<ellipse fill="none" stroke="black" cx="122" cy="-949" rx="121.122" ry="18.3848"/>
<text text-anchor="middle" x="122" y="-945.4" font-family="Times Roman,serif" font-size="14.00">eZ Publish Community</text>
</g>
<!-- eZ Publish Community&#45;&gt;Symfony Full Stack -->
<g id="edge134" class="edge"><title>eZ Publish Community&#45;&gt;Symfony Full Stack</title>
<path fill="none" stroke="black" d="M219.803,-938.13C228.734,-934.094 237.026,-928.83 244,-922 292.364,-874.632 235.435,-824.958 280,-774 288.386,-764.41 299.297,-757.047 310.906,-751.397"/>
<polygon fill="black" stroke="black" points="312.605,-754.473 320.331,-747.224 309.771,-748.072 312.605,-754.473"/>
</g>
<!-- Joomla! -->
<g id="node101" class="node"><title>Joomla!</title>
<ellipse fill="none" stroke="black" cx="385" cy="-1503" rx="48.0833" ry="18.3848"/>
<text text-anchor="middle" x="385" y="-1499.4" font-family="Times Roman,serif" font-size="14.00">Joomla!</text>
</g>
<!-- Joomla!&#45;&gt;Yaml -->
<g id="edge136" class="edge"><title>Joomla!&#45;&gt;Yaml</title>
<path fill="none" stroke="black" d="M431.474,-1498.08C478.485,-1493.1 550.589,-1485.47 596.504,-1480.61"/>
<polygon fill="black" stroke="black" points="596.874,-1484.09 606.45,-1479.55 596.137,-1477.12 596.874,-1484.09"/>
</g>
<!-- Composer -->
<g id="node103" class="node"><title>Composer</title>
<ellipse fill="none" stroke="black" cx="385" cy="-126" rx="60.1041" ry="18.3848"/>
<text text-anchor="middle" x="385" y="-122.4" font-family="Times Roman,serif" font-size="14.00">Composer</text>
</g>
<!-- Composer&#45;&gt;Console -->
<g id="edge138" class="edge"><title>Composer&#45;&gt;Console</title>
<path fill="none" stroke="black" d="M443.966,-129.66C460.828,-133.492 477.894,-140.487 490,-153 541.285,-206.008 474.21,-262.485 526,-315 540.108,-329.305 560.302,-336.59 579.784,-340.144"/>
<polygon fill="black" stroke="black" points="579.459,-343.634 589.872,-341.679 580.512,-336.714 579.459,-343.634"/>
</g>
<!-- Composer&#45;&gt;Finder -->
<g id="edge140" class="edge"><title>Composer&#45;&gt;Finder</title>
<path fill="none" stroke="black" d="M441.135,-132.577C457.965,-136.535 475.725,-142.869 490,-153 513.522,-169.695 502.319,-190.531 526,-207 544.296,-219.724 567.814,-226.503 588.733,-230.094"/>
<polygon fill="black" stroke="black" points="588.347,-233.575 598.758,-231.613 589.396,-226.654 588.347,-233.575"/>
</g>
<!-- Composer&#45;&gt;Process -->
<g id="edge142" class="edge"><title>Composer&#45;&gt;Process</title>
<path fill="none" stroke="black" d="M441.135,-119.423C457.965,-115.465 475.725,-109.131 490,-99 513.522,-82.3052 502.319,-61.469 526,-45 542.566,-33.4792 563.412,-26.8329 582.734,-23.0132"/>
<polygon fill="black" stroke="black" points="583.427,-26.445 592.668,-21.2625 582.213,-19.5512 583.427,-26.445"/>
</g>
<!-- Magento -->
<g id="node107" class="node"><title>Magento</title>
<ellipse fill="none" stroke="black" cx="385" cy="-396" rx="53.9477" ry="18.3848"/>
<text text-anchor="middle" x="385" y="-392.4" font-family="Times Roman,serif" font-size="14.00">Magento</text>
</g>
<!-- Magento&#45;&gt;Console -->
<g id="edge144" class="edge"><title>Magento&#45;&gt;Console</title>
<path fill="none" stroke="black" d="M430.883,-386.284C474.7,-377.005 540.704,-363.027 586.802,-353.265"/>
<polygon fill="black" stroke="black" points="587.554,-356.684 596.612,-351.188 586.104,-349.836 587.554,-356.684"/>
</g>
<!-- Piwik -->
<g id="node109" class="node"><title>Piwik</title>
<ellipse fill="none" stroke="black" cx="385" cy="-342" rx="38.1838" ry="18.3848"/>
<text text-anchor="middle" x="385" y="-338.4" font-family="Times Roman,serif" font-size="14.00">Piwik</text>
</g>
<!-- Piwik&#45;&gt;Console -->
<g id="edge146" class="edge"><title>Piwik&#45;&gt;Console</title>
<path fill="none" stroke="black" d="M423.176,-342C464.554,-342 531.156,-342 579.638,-342"/>
<polygon fill="black" stroke="black" points="579.693,-345.5 589.693,-342 579.693,-338.5 579.693,-345.5"/>
</g>
<!-- Silex -->
<g id="node111" class="node"><title>Silex</title>
<ellipse fill="none" stroke="black" cx="385" cy="-585" rx="34.1461" ry="18.3848"/>
<text text-anchor="middle" x="385" y="-581.4" font-family="Times Roman,serif" font-size="14.00">Silex</text>
</g>
<!-- Silex&#45;&gt;EventDispatcher -->
<g id="edge158" class="edge"><title>Silex&#45;&gt;EventDispatcher</title>
<path fill="none" stroke="black" d="M411.657,-573.567C439.736,-561.815 485.421,-543.515 526,-531 539.216,-526.924 553.453,-523.109 567.238,-519.703"/>
<polygon fill="black" stroke="black" points="568.278,-523.052 577.174,-517.297 566.631,-516.249 568.278,-523.052"/>
</g>
<!-- Silex&#45;&gt;HttpFoundation -->
<g id="edge164" class="edge"><title>Silex&#45;&gt;HttpFoundation</title>
<path fill="none" stroke="black" d="M418.862,-588.585C452.491,-592.146 505.491,-597.758 551.173,-602.595"/>
<polygon fill="black" stroke="black" points="551.088,-606.105 561.401,-603.678 551.826,-599.144 551.088,-606.105"/>
</g>
<!-- Silex&#45;&gt;HttpKernel -->
<g id="edge166" class="edge"><title>Silex&#45;&gt;HttpKernel</title>
<path fill="none" stroke="black" d="M419.53,-584.809C442.679,-586.602 472.096,-592.922 490,-612 548.516,-674.353 466.89,-739.21 526,-801 536.668,-812.152 551.028,-819.065 565.953,-823.273"/>
<polygon fill="black" stroke="black" points="565.266,-826.707 575.81,-825.664 566.917,-819.905 565.266,-826.707"/>
</g>
<!-- Silex&#45;&gt;Routing -->
<g id="edge174" class="edge"><title>Silex&#45;&gt;Routing</title>
<path fill="none" stroke="black" d="M419.601,-585.267C442.481,-587.298 471.551,-593.715 490,-612 534.104,-655.713 481.48,-703.711 526,-747 540.467,-761.066 560.841,-768.285 580.372,-771.852"/>
<polygon fill="black" stroke="black" points="580.058,-775.344 590.473,-773.4 581.119,-768.425 580.058,-775.344"/>
</g>
<!-- Silex&#45;&gt;Serializer -->
<g id="edge178" class="edge"><title>Silex&#45;&gt;Serializer</title>
<path fill="none" stroke="black" d="M419.497,-584.121C443.099,-585.533 473.073,-591.682 490,-612 563.147,-699.804 452.016,-1037.9 526,-1125 537.502,-1138.54 554.429,-1145.99 571.738,-1149.92"/>
<polygon fill="black" stroke="black" points="571.46,-1153.43 581.936,-1151.84 572.76,-1146.55 571.46,-1153.43"/>
</g>
<!-- Silex&#45;&gt;Validator -->
<g id="edge180" class="edge"><title>Silex&#45;&gt;Validator</title>
<path fill="none" stroke="black" d="M419.539,-584.087C443.16,-585.482 473.141,-591.625 490,-612 570.487,-709.272 444.586,-1082.5 526,-1179 538.174,-1193.43 556.506,-1200.94 574.931,-1204.66"/>
<polygon fill="black" stroke="black" points="574.398,-1208.12 584.838,-1206.32 575.552,-1201.22 574.398,-1208.12"/>
</g>
<!-- Silex&#45;&gt;BrowserKit -->
<g id="edge148" class="edge"><title>Silex&#45;&gt;BrowserKit</title>
<path fill="none" stroke="black" d="M416.599,-577.464C440.822,-569.937 472.906,-555.815 490,-531 572.194,-411.684 429.981,-315.5 526,-207 535.966,-195.738 549.685,-188.73 564.157,-184.457"/>
<polygon fill="black" stroke="black" points="565.415,-187.749 574.26,-181.917 563.709,-180.961 565.415,-187.749"/>
</g>
<!-- Silex&#45;&gt;Config -->
<g id="edge150" class="edge"><title>Silex&#45;&gt;Config</title>
<path fill="none" stroke="black" d="M419.634,-584.233C443.142,-585.72 472.946,-591.912 490,-612 548.476,-680.881 466.868,-948.682 526,-1017 541.121,-1034.47 565.271,-1041.75 587.459,-1044.45"/>
<polygon fill="black" stroke="black" points="587.193,-1047.94 597.476,-1045.38 587.845,-1040.97 587.193,-1047.94"/>
</g>
<!-- Silex&#45;&gt;CssSelector -->
<g id="edge152" class="edge"><title>Silex&#45;&gt;CssSelector</title>
<path fill="none" stroke="black" d="M416.706,-577.536C440.988,-570.05 473.101,-555.948 490,-531 537.322,-461.138 470.577,-216.626 526,-153 535.552,-142.034 548.661,-135.088 562.595,-130.771"/>
<polygon fill="black" stroke="black" points="563.572,-134.133 572.34,-128.185 561.777,-127.367 563.572,-134.133"/>
</g>
<!-- Silex&#45;&gt;Debug -->
<g id="edge154" class="edge"><title>Silex&#45;&gt;Debug</title>
<path fill="none" stroke="black" d="M413.672,-574.883C436.239,-565.896 467.524,-551.07 490,-531 511.515,-511.788 502.319,-493.469 526,-477 543.57,-464.781 565.956,-458.045 586.231,-454.349"/>
<polygon fill="black" stroke="black" points="586.978,-457.774 596.293,-452.724 585.863,-450.863 586.978,-457.774"/>
</g>
<!-- Silex&#45;&gt;DomCrawler -->
<g id="edge156" class="edge"><title>Silex&#45;&gt;DomCrawler</title>
<path fill="none" stroke="black" d="M416.786,-577.59C441.114,-570.135 473.249,-556.048 490,-531 543.553,-450.924 463.157,-172.012 526,-99 534.376,-89.2691 545.552,-82.6954 557.639,-78.3137"/>
<polygon fill="black" stroke="black" points="558.981,-81.5617 567.492,-75.251 556.904,-74.8772 558.981,-81.5617"/>
</g>
<!-- Silex&#45;&gt;Finder -->
<g id="edge160" class="edge"><title>Silex&#45;&gt;Finder</title>
<path fill="none" stroke="black" d="M416.452,-577.361C440.591,-569.776 472.635,-555.626 490,-531 559.765,-432.062 444.782,-350.775 526,-261 541.619,-243.735 566.063,-236.511 588.317,-233.801"/>
<polygon fill="black" stroke="black" points="588.722,-237.279 598.349,-232.854 588.064,-230.31 588.722,-237.279"/>
</g>
<!-- Silex&#45;&gt;Process -->
<g id="edge172" class="edge"><title>Silex&#45;&gt;Process</title>
<path fill="none" stroke="black" d="M416.849,-577.632C441.212,-570.2 473.364,-556.125 490,-531 549.788,-440.704 455.731,-127.403 526,-45 539.78,-28.8407 561.284,-21.3715 581.918,-18.1917"/>
<polygon fill="black" stroke="black" points="582.444,-21.6535 591.94,-16.9561 581.587,-14.7061 582.444,-21.6535"/>
</g>
<!-- Silex&#45;&gt;Form -->
<g id="edge162" class="edge"><title>Silex&#45;&gt;Form</title>
<path fill="none" stroke="black" d="M419.528,-584.563C442.83,-586.224 472.43,-592.488 490,-612 563.059,-693.132 452.168,-774.571 526,-855 543.013,-873.534 570.201,-880.461 593.758,-882.67"/>
<polygon fill="black" stroke="black" points="593.719,-886.175 603.934,-883.364 594.195,-879.192 593.719,-886.175"/>
</g>
<!-- Silex&#45;&gt;Locale -->
<g id="edge168" class="edge"><title>Silex&#45;&gt;Locale</title>
<path fill="none" stroke="black" d="M418.862,-581.415C462.209,-576.825 537.739,-568.828 588.3,-563.474"/>
<polygon fill="black" stroke="black" points="588.8,-566.941 598.376,-562.407 588.063,-559.98 588.8,-566.941"/>
</g>
<!-- Silex&#45;&gt;OptionsResolver -->
<g id="edge170" class="edge"><title>Silex&#45;&gt;OptionsResolver</title>
<path fill="none" stroke="black" d="M419.551,-584.305C443.019,-585.825 472.81,-592.028 490,-612 592.298,-730.858 422.57,-845.126 526,-963 531.897,-969.72 539.13,-974.929 547.066,-978.946"/>
<polygon fill="black" stroke="black" points="545.727,-982.181 556.291,-982.994 548.54,-975.771 545.727,-982.181"/>
</g>
<!-- Silex&#45;&gt;Security -->
<g id="edge176" class="edge"><title>Silex&#45;&gt;Security</title>
<path fill="none" stroke="black" d="M419.689,-584.42C443.066,-586.014 472.689,-592.258 490,-612 577.662,-711.977 437.385,-809.867 526,-909 539.043,-923.592 558.388,-931.029 577.454,-934.628"/>
<polygon fill="black" stroke="black" points="576.944,-938.091 587.364,-936.178 578.025,-931.175 576.944,-938.091"/>
</g>
<!-- Assetic -->
<g id="node129" class="node"><title>Assetic</title>
<ellipse fill="none" stroke="black" cx="385" cy="-18" rx="45.9619" ry="18.3848"/>
<text text-anchor="middle" x="385" y="-14.4" font-family="Times Roman,serif" font-size="14.00">Assetic</text>
</g>
<!-- Assetic&#45;&gt;Process -->
<g id="edge182" class="edge"><title>Assetic&#45;&gt;Process</title>
<path fill="none" stroke="black" d="M431.179,-18C473.343,-18 535.872,-18 581.513,-18"/>
<polygon fill="black" stroke="black" points="581.563,-21.5001 591.563,-18 581.563,-14.5001 581.563,-21.5001"/>
</g>
<!-- Goutte -->
<g id="node131" class="node"><title>Goutte</title>
<ellipse fill="none" stroke="black" cx="385" cy="-72" rx="45.9619" ry="18.3848"/>
<text text-anchor="middle" x="385" y="-68.4" font-family="Times Roman,serif" font-size="14.00">Goutte</text>
</g>
<!-- Goutte&#45;&gt;BrowserKit -->
<g id="edge184" class="edge"><title>Goutte&#45;&gt;BrowserKit</title>
<path fill="none" stroke="black" d="M429.928,-76.2426C449.766,-79.8682 472.502,-86.5808 490,-99 513.522,-115.695 502.319,-136.531 526,-153 538.278,-161.539 552.908,-167.4 567.526,-171.418"/>
<polygon fill="black" stroke="black" points="567.067,-174.91 577.615,-173.914 568.749,-168.115 567.067,-174.91"/>
</g>
<!-- Goutte&#45;&gt;CssSelector -->
<g id="edge186" class="edge"><title>Goutte&#45;&gt;CssSelector</title>
<path fill="none" stroke="black" d="M425.687,-80.6162C466.383,-89.234 529.548,-102.61 576.778,-112.612"/>
<polygon fill="black" stroke="black" points="576.093,-116.044 586.601,-114.692 577.543,-109.196 576.093,-116.044"/>
</g>
<!-- Goutte&#45;&gt;DomCrawler -->
<g id="edge188" class="edge"><title>Goutte&#45;&gt;DomCrawler</title>
<path fill="none" stroke="black" d="M431.179,-72C465.917,-72 514.479,-72 556.032,-72"/>
<polygon fill="black" stroke="black" points="556.155,-75.5001 566.155,-72 556.155,-68.5001 556.155,-75.5001"/>
</g>
<!-- Goutte&#45;&gt;Finder -->
<g id="edge190" class="edge"><title>Goutte&#45;&gt;Finder</title>
<path fill="none" stroke="black" d="M430.797,-74.0753C451.173,-77.2319 474.099,-84.1756 490,-99 527.008,-133.502 488.663,-172.853 526,-207 542.779,-222.346 566.644,-229.437 588.206,-232.558"/>
<polygon fill="black" stroke="black" points="587.895,-236.045 598.24,-233.759 588.726,-229.095 587.895,-236.045"/>
</g>
<!-- Goutte&#45;&gt;Process -->
<g id="edge192" class="edge"><title>Goutte&#45;&gt;Process</title>
<path fill="none" stroke="black" d="M425.687,-63.3838C469.796,-54.0433 540.302,-39.1125 588.303,-28.9477"/>
<polygon fill="black" stroke="black" points="589.128,-32.3505 598.186,-26.8546 587.678,-25.5024 589.128,-32.3505"/>
</g>
<!-- Sami -->
<g id="node137" class="node"><title>Sami</title>
<ellipse fill="none" stroke="black" cx="385" cy="-288" rx="34.8574" ry="18.3848"/>
<text text-anchor="middle" x="385" y="-284.4" font-family="Times Roman,serif" font-size="14.00">Sami</text>
</g>
<!-- Sami&#45;&gt;Yaml -->
<g id="edge202" class="edge"><title>Sami&#45;&gt;Yaml</title>
<path fill="none" stroke="black" d="M420.499,-286.969C444.092,-288.376 473.642,-294.581 490,-315 568.818,-413.385 446.244,-1351.37 526,-1449 542.608,-1469.33 571.445,-1476.02 595.959,-1477.66"/>
<polygon fill="black" stroke="black" points="596.018,-1481.17 606.153,-1478.08 596.305,-1474.17 596.018,-1481.17"/>
</g>
<!-- Sami&#45;&gt;Console -->
<g id="edge194" class="edge"><title>Sami&#45;&gt;Console</title>
<path fill="none" stroke="black" d="M417.815,-294.949C460.565,-304.002 535.851,-319.945 586.81,-330.736"/>
<polygon fill="black" stroke="black" points="586.152,-334.174 596.66,-332.822 587.602,-327.326 586.152,-334.174"/>
</g>
<!-- Sami&#45;&gt;Filesystem -->
<g id="edge196" class="edge"><title>Sami&#45;&gt;Filesystem</title>
<path fill="none" stroke="black" d="M420.725,-288C458.603,-288 519.471,-288 567.477,-288"/>
<polygon fill="black" stroke="black" points="567.513,-291.5 577.513,-288 567.513,-284.5 567.513,-291.5"/>
</g>
<!-- Sami&#45;&gt;Finder -->
<g id="edge198" class="edge"><title>Sami&#45;&gt;Finder</title>
<path fill="none" stroke="black" d="M417.815,-281.051C462.112,-271.67 541.342,-254.892 592.243,-244.113"/>
<polygon fill="black" stroke="black" points="593.282,-247.471 602.34,-241.975 591.831,-240.623 593.282,-247.471"/>
</g>
<!-- Sami&#45;&gt;Process -->
<g id="edge200" class="edge"><title>Sami&#45;&gt;Process</title>
<path fill="none" stroke="black" d="M420.675,-288.242C443.726,-286.402 472.572,-280.005 490,-261 555.777,-189.269 459.54,-116.099 526,-45 540.258,-29.7469 561.413,-22.3851 581.64,-19.0386"/>
<polygon fill="black" stroke="black" points="582.334,-22.4766 591.775,-17.6676 581.396,-15.5398 582.334,-22.4766"/>
</g>
<!-- Sismo -->
<g id="node143" class="node"><title>Sismo</title>
<ellipse fill="none" stroke="black" cx="385" cy="-180" rx="39.8075" ry="18.3848"/>
<text text-anchor="middle" x="385" y="-176.4" font-family="Times Roman,serif" font-size="14.00">Sismo</text>
</g>
<!-- Sismo&#45;&gt;ClassLoader -->
<g id="edge206" class="edge"><title>Sismo&#45;&gt;ClassLoader</title>
<path fill="none" stroke="black" d="M425.676,-179.351C448.276,-181.342 474.819,-188.05 490,-207 568.818,-305.385 446.244,-1243.37 526,-1341 534.853,-1351.84 547.182,-1358.8 560.478,-1363.19"/>
<polygon fill="black" stroke="black" points="559.721,-1366.61 570.295,-1365.94 561.615,-1359.87 559.721,-1366.61"/>
</g>
<!-- Sismo&#45;&gt;BrowserKit -->
<g id="edge204" class="edge"><title>Sismo&#45;&gt;BrowserKit</title>
<path fill="none" stroke="black" d="M425.687,-180C462.683,-180 518.248,-180 563.53,-180"/>
<polygon fill="black" stroke="black" points="563.615,-183.5 573.615,-180 563.615,-176.5 563.615,-183.5"/>
</g>
<!-- Sismo&#45;&gt;Console -->
<g id="edge208" class="edge"><title>Sismo&#45;&gt;Console</title>
<path fill="none" stroke="black" d="M425.568,-181.338C447.15,-184.089 472.722,-190.892 490,-207 527.008,-241.502 488.663,-280.853 526,-315 540.698,-328.442 560.833,-335.551 580.095,-339.205"/>
<polygon fill="black" stroke="black" points="579.624,-342.675 590.054,-340.816 580.742,-335.764 579.624,-342.675"/>
</g>
<!-- Sismo&#45;&gt;CssSelector -->
<g id="edge210" class="edge"><title>Sismo&#45;&gt;CssSelector</title>
<path fill="none" stroke="black" d="M421.807,-172.206C462.324,-163.626 528.175,-149.681 576.951,-139.352"/>
<polygon fill="black" stroke="black" points="577.717,-142.767 586.775,-137.271 576.267,-135.919 577.717,-142.767"/>
</g>
<!-- Sismo&#45;&gt;DomCrawler -->
<g id="edge212" class="edge"><title>Sismo&#45;&gt;DomCrawler</title>
<path fill="none" stroke="black" d="M425.033,-176.601C445.941,-173.211 471.044,-166.454 490,-153 513.522,-136.305 502.319,-115.469 526,-99 536.911,-91.4117 549.679,-85.9381 562.646,-81.9941"/>
<polygon fill="black" stroke="black" points="563.858,-85.291 572.573,-79.2665 562.003,-78.5412 563.858,-85.291"/>
</g>
<!-- Sismo&#45;&gt;Filesystem -->
<g id="edge214" class="edge"><title>Sismo&#45;&gt;Filesystem</title>
<path fill="none" stroke="black" d="M425.033,-183.399C445.941,-186.789 471.044,-193.546 490,-207 513.522,-223.695 502.319,-244.531 526,-261 539.081,-270.098 554.832,-276.155 570.393,-280.182"/>
<polygon fill="black" stroke="black" points="570.029,-283.691 580.562,-282.547 571.614,-276.873 570.029,-283.691"/>
</g>
<!-- Sismo&#45;&gt;Finder -->
<g id="edge216" class="edge"><title>Sismo&#45;&gt;Finder</title>
<path fill="none" stroke="black" d="M421.807,-187.794C466.84,-197.331 543.17,-213.495 592.567,-223.955"/>
<polygon fill="black" stroke="black" points="591.865,-227.384 602.373,-226.032 593.315,-220.536 591.865,-227.384"/>
</g>
<!-- Sismo&#45;&gt;Process -->
<g id="edge218" class="edge"><title>Sismo&#45;&gt;Process</title>
<path fill="none" stroke="black" d="M425.568,-178.662C447.15,-175.911 472.722,-169.108 490,-153 527.008,-118.498 488.663,-79.1465 526,-45 541.215,-31.085 562.256,-23.9566 582.123,-20.4219"/>
<polygon fill="black" stroke="black" points="582.693,-23.8757 592.059,-18.9227 581.648,-16.954 582.693,-23.8757"/>
</g>
<!-- PHPUnit -->
<g id="node152" class="node"><title>PHPUnit</title>
<ellipse fill="none" stroke="black" cx="385" cy="-1449" rx="51.8276" ry="18.3848"/>
<text text-anchor="middle" x="385" y="-1445.4" font-family="Times Roman,serif" font-size="14.00">PHPUnit</text>
</g>
<!-- PHPUnit&#45;&gt;Yaml -->
<g id="edge220" class="edge"><title>PHPUnit&#45;&gt;Yaml</title>
<path fill="none" stroke="black" d="M435.38,-1454.33C482.375,-1459.31 551.761,-1466.66 596.426,-1471.39"/>
<polygon fill="black" stroke="black" points="596.078,-1474.87 606.391,-1472.44 596.815,-1467.91 596.078,-1474.87"/>
</g>
<!-- OroCRM -->
<g id="node154" class="node"><title>OroCRM</title>
<ellipse fill="none" stroke="black" cx="122" cy="-895" rx="51.1176" ry="18.3848"/>
<text text-anchor="middle" x="122" y="-891.4" font-family="Times Roman,serif" font-size="14.00">OroCRM</text>
</g>
<!-- OroCRM&#45;&gt;Symfony Full Stack -->
<g id="edge222" class="edge"><title>OroCRM&#45;&gt;Symfony Full Stack</title>
<path fill="none" stroke="black" d="M173.536,-894.456C197.408,-891.696 224.694,-884.642 244,-868 277.885,-838.791 248.47,-805.737 280,-774 289.397,-764.541 301.23,-757.213 313.536,-751.552"/>
<polygon fill="black" stroke="black" points="315.164,-754.663 323.006,-747.539 312.433,-748.218 315.164,-754.663"/>
</g>
<!-- Oro Platform -->
<g id="node156" class="node"><title>Oro Platform</title>
<ellipse fill="none" stroke="black" cx="122" cy="-841" rx="73.0388" ry="18.3848"/>
<text text-anchor="middle" x="122" y="-837.4" font-family="Times Roman,serif" font-size="14.00">Oro Platform</text>
</g>
<!-- Oro Platform&#45;&gt;Symfony Full Stack -->
<g id="edge224" class="edge"><title>Oro Platform&#45;&gt;Symfony Full Stack</title>
<path fill="none" stroke="black" d="M189.673,-833.733C208.162,-829.741 227.602,-823.561 244,-814 264.662,-801.952 260.329,-787.606 280,-774 292.675,-765.233 307.487,-757.98 321.923,-752.139"/>
<polygon fill="black" stroke="black" points="323.264,-755.374 331.329,-748.503 320.74,-748.845 323.264,-755.374"/>
</g>
<!-- Doctrine -->
<g id="node158" class="node"><title>Doctrine</title>
<ellipse fill="none" stroke="black" cx="385" cy="-1098" rx="53.2379" ry="18.3848"/>
<text text-anchor="middle" x="385" y="-1094.4" font-family="Times Roman,serif" font-size="14.00">Doctrine</text>
</g>
<!-- Doctrine&#45;&gt;Yaml -->
<g id="edge228" class="edge"><title>Doctrine&#45;&gt;Yaml</title>
<path fill="none" stroke="black" d="M438.521,-1099.62C457.433,-1102.99 477.168,-1110.22 490,-1125 584.977,-1234.41 429.981,-1340.5 526,-1449 543.279,-1468.52 571.837,-1475.27 596.046,-1477.13"/>
<polygon fill="black" stroke="black" points="595.942,-1480.63 606.11,-1477.65 596.305,-1473.64 595.942,-1480.63"/>
</g>
<!-- Doctrine&#45;&gt;Console -->
<g id="edge226" class="edge"><title>Doctrine&#45;&gt;Console</title>
<path fill="none" stroke="black" d="M438.445,-1096.87C457.582,-1093.59 477.494,-1086.3 490,-1071 588.847,-950.049 426,-489 526,-369 539.2,-353.16 559.821,-345.632 579.917,-342.315"/>
<polygon fill="black" stroke="black" points="580.567,-345.76 590.02,-340.976 579.646,-338.821 580.567,-345.76"/>
</g>
<!-- Behat -->
<g id="node161" class="node"><title>Behat</title>
<ellipse fill="none" stroke="black" cx="385" cy="-1044" rx="41.0122" ry="18.3848"/>
<text text-anchor="middle" x="385" y="-1040.4" font-family="Times Roman,serif" font-size="14.00">Behat</text>
</g>
<!-- Behat&#45;&gt;ClassLoader -->
<g id="edge230" class="edge"><title>Behat&#45;&gt;ClassLoader</title>
<path fill="none" stroke="black" d="M426.029,-1044.04C448.168,-1046.34 474.133,-1053.12 490,-1071 570.356,-1161.55 444.782,-1251.22 526,-1341 535.333,-1351.32 547.817,-1358.05 561.102,-1362.37"/>
<polygon fill="black" stroke="black" points="560.309,-1365.79 570.883,-1365.11 562.198,-1359.05 560.309,-1365.79"/>
</g>
<!-- Behat&#45;&gt;DependencyInjection -->
<g id="edge236" class="edge"><title>Behat&#45;&gt;DependencyInjection</title>
<path fill="none" stroke="black" d="M426.178,-1043.91C448.366,-1046.16 474.33,-1052.95 490,-1071 584.977,-1180.41 429.981,-1286.5 526,-1395 529.833,-1399.33 534.221,-1403.03 538.994,-1406.19"/>
<polygon fill="black" stroke="black" points="537.544,-1409.4 547.964,-1411.31 541.014,-1403.32 537.544,-1409.4"/>
</g>
<!-- Behat&#45;&gt;EventDispatcher -->
<g id="edge238" class="edge"><title>Behat&#45;&gt;EventDispatcher</title>
<path fill="none" stroke="black" d="M413.169,-1030.76C438.047,-1017.43 472.941,-994.344 490,-963 536.052,-878.388 463.157,-604.012 526,-531 531.458,-524.659 538.105,-519.659 545.418,-515.732"/>
<polygon fill="black" stroke="black" points="547.384,-518.68 554.998,-511.312 544.451,-512.324 547.384,-518.68"/>
</g>
<!-- Behat&#45;&gt;Yaml -->
<g id="edge244" class="edge"><title>Behat&#45;&gt;Yaml</title>
<path fill="none" stroke="black" d="M426.025,-1043.79C448.305,-1045.99 474.411,-1052.75 490,-1071 544.811,-1135.15 470.577,-1385.37 526,-1449 543.125,-1468.66 571.683,-1475.4 595.931,-1477.23"/>
<polygon fill="black" stroke="black" points="595.85,-1480.73 606.013,-1477.74 596.202,-1473.74 595.85,-1480.73"/>
</g>
<!-- Behat&#45;&gt;Config -->
<g id="edge232" class="edge"><title>Behat&#45;&gt;Config</title>
<path fill="none" stroke="black" d="M426.254,-1044C469.984,-1044 539.196,-1044 586.955,-1044"/>
<polygon fill="black" stroke="black" points="587.103,-1047.5 597.102,-1044 587.102,-1040.5 587.103,-1047.5"/>
</g>
<!-- Behat&#45;&gt;Console -->
<g id="edge234" class="edge"><title>Behat&#45;&gt;Console</title>
<path fill="none" stroke="black" d="M413.335,-1030.85C438.327,-1017.58 473.296,-994.535 490,-963 551.901,-846.14 440.869,-470.197 526,-369 539.217,-353.289 559.736,-345.77 579.744,-342.425"/>
<polygon fill="black" stroke="black" points="580.36,-345.874 589.803,-341.068 579.425,-338.937 580.36,-345.874"/>
</g>
<!-- Behat&#45;&gt;Finder -->
<g id="edge240" class="edge"><title>Behat&#45;&gt;Finder</title>
<path fill="none" stroke="black" d="M413.403,-1030.89C438.443,-1017.64 473.443,-994.612 490,-963 526.238,-893.813 476,-321 526,-261 541.074,-242.911 565.828,-235.661 588.425,-233.146"/>
<polygon fill="black" stroke="black" points="588.936,-236.616 598.612,-232.301 588.357,-229.639 588.936,-236.616"/>
</g>
<!-- Behat&#45;&gt;Translation -->
<g id="edge242" class="edge"><title>Behat&#45;&gt;Translation</title>
<path fill="none" stroke="black" d="M422.079,-1051.85C463.045,-1060.53 529.668,-1074.64 578.481,-1084.97"/>
<polygon fill="black" stroke="black" points="577.794,-1088.4 588.302,-1087.05 579.244,-1081.56 577.794,-1088.4"/>
</g>
<!-- Sylius -->
<g id="node170" class="node"><title>Sylius</title>
<ellipse fill="none" stroke="black" cx="122" cy="-787" rx="39.8075" ry="18.3848"/>
<text text-anchor="middle" x="122" y="-783.4" font-family="Times Roman,serif" font-size="14.00">Sylius</text>
</g>
<!-- Sylius&#45;&gt;Symfony Full Stack -->
<g id="edge246" class="edge"><title>Sylius&#45;&gt;Symfony Full Stack</title>
<path fill="none" stroke="black" d="M158.846,-779.435C197.267,-771.546 258.621,-758.949 307.736,-748.864"/>
<polygon fill="black" stroke="black" points="308.61,-752.258 317.701,-746.818 307.202,-745.401 308.61,-752.258"/>
</g>
<!-- Sonata Project -->
<g id="node172" class="node"><title>Sonata Project</title>
<ellipse fill="none" stroke="black" cx="122" cy="-733" rx="82.2301" ry="18.3848"/>
<text text-anchor="middle" x="122" y="-729.4" font-family="Times Roman,serif" font-size="14.00">Sonata Project</text>
</g>
<!-- Sonata Project&#45;&gt;Symfony Full Stack -->
<g id="edge248" class="edge"><title>Sonata Project&#45;&gt;Symfony Full Stack</title>
<path fill="none" stroke="black" d="M204.854,-733C225.615,-733 248.258,-733 270.265,-733"/>
<polygon fill="black" stroke="black" points="270.323,-736.5 280.323,-733 270.323,-729.5 270.323,-736.5"/>
</g>
<!-- Zikula -->
<g id="node174" class="node"><title>Zikula</title>
<ellipse fill="none" stroke="black" cx="122" cy="-679" rx="41.2167" ry="18.3848"/>
<text text-anchor="middle" x="122" y="-675.4" font-family="Times Roman,serif" font-size="14.00">Zikula</text>
</g>
<!-- Zikula&#45;&gt;Symfony Full Stack -->
<g id="edge250" class="edge"><title>Zikula&#45;&gt;Symfony Full Stack</title>
<path fill="none" stroke="black" d="M159.681,-686.737C198.15,-694.635 258.97,-707.123 307.73,-717.135"/>
<polygon fill="black" stroke="black" points="307.125,-720.583 317.624,-719.166 308.533,-713.726 307.125,-720.583"/>
</g>
<!-- Symfony CMF -->
<g id="node176" class="node"><title>Symfony CMF</title>
<ellipse fill="none" stroke="black" cx="122" cy="-625" rx="77.9889" ry="18.3848"/>
<text text-anchor="middle" x="122" y="-621.4" font-family="Times Roman,serif" font-size="14.00">Symfony CMF</text>
</g>
<!-- Symfony CMF&#45;&gt;Symfony Full Stack -->
<g id="edge252" class="edge"><title>Symfony CMF&#45;&gt;Symfony Full Stack</title>
<path fill="none" stroke="black" d="M186.402,-635.438C205.311,-639.516 225.795,-644.947 244,-652 282.837,-667.046 323.74,-691.652 351.429,-709.802"/>
<polygon fill="black" stroke="black" points="349.668,-712.834 359.935,-715.448 353.538,-707.002 349.668,-712.834"/>
</g>
<!-- Akeneo PIM -->
<g id="node178" class="node"><title>Akeneo PIM</title>
<ellipse fill="none" stroke="black" cx="122" cy="-571" rx="68.7979" ry="18.3848"/>
<text text-anchor="middle" x="122" y="-567.4" font-family="Times Roman,serif" font-size="14.00">Akeneo PIM</text>
</g>
<!-- Akeneo PIM&#45;&gt;Symfony Full Stack -->
<g id="edge254" class="edge"><title>Akeneo PIM&#45;&gt;Symfony Full Stack</title>
<path fill="none" stroke="black" d="M189.456,-575.349C208.559,-579.247 228.381,-586.106 244,-598 271.205,-618.718 256.819,-640.86 280,-666 296.779,-684.198 319.547,-699.517 339.592,-710.894"/>
<polygon fill="black" stroke="black" points="338.131,-714.085 348.579,-715.84 341.506,-707.952 338.131,-714.085"/>
</g>
<!-- Shopware -->
<g id="node180" class="node"><title>Shopware</title>
<ellipse fill="none" stroke="black" cx="385" cy="-801" rx="60.8112" ry="18.3848"/>
<text text-anchor="middle" x="385" y="-797.4" font-family="Times Roman,serif" font-size="14.00">Shopware</text>
</g>
<!-- Shopware&#45;&gt;DependencyInjection -->
<g id="edge260" class="edge"><title>Shopware&#45;&gt;DependencyInjection</title>
<path fill="none" stroke="black" d="M409.12,-817.665C434.265,-836.564 472.409,-869.886 490,-909 534.418,-1007.77 455.731,-1312.6 526,-1395 529.712,-1399.35 533.984,-1403.07 538.649,-1406.25"/>
<polygon fill="black" stroke="black" points="537.036,-1409.36 547.432,-1411.4 540.576,-1403.33 537.036,-1409.36"/>
</g>
<!-- Shopware&#45;&gt;HttpFoundation -->
<g id="edge266" class="edge"><title>Shopware&#45;&gt;HttpFoundation</title>
<path fill="none" stroke="black" d="M436.164,-791.075C455.345,-785.009 475.888,-775.337 490,-760 527.992,-718.712 485.219,-677.535 526,-639 533.022,-632.365 541.363,-627.262 550.292,-623.352"/>
<polygon fill="black" stroke="black" points="551.707,-626.558 559.779,-619.695 549.189,-620.026 551.707,-626.558"/>
</g>
<!-- Shopware&#45;&gt;HttpKernel -->
<g id="edge268" class="edge"><title>Shopware&#45;&gt;HttpKernel</title>
<path fill="none" stroke="black" d="M442.545,-807.093C480.191,-811.079 529.622,-816.313 569.608,-820.547"/>
<polygon fill="black" stroke="black" points="569.244,-824.028 579.557,-821.6 569.981,-817.067 569.244,-824.028"/>
</g>
<!-- Shopware&#45;&gt;Routing -->
<g id="edge270" class="edge"><title>Shopware&#45;&gt;Routing</title>
<path fill="none" stroke="black" d="M442.545,-794.907C484.206,-790.496 540.3,-784.556 582.054,-780.135"/>
<polygon fill="black" stroke="black" points="582.497,-783.608 592.073,-779.075 581.76,-776.647 582.497,-783.608"/>
</g>
<!-- Shopware&#45;&gt;Validator -->
<g id="edge272" class="edge"><title>Shopware&#45;&gt;Validator</title>
<path fill="none" stroke="black" d="M408.679,-817.871C433.446,-836.946 471.271,-870.418 490,-909 542.868,-1017.91 444.782,-1089.22 526,-1179 538.492,-1192.81 556.628,-1200.19 574.774,-1203.98"/>
<polygon fill="black" stroke="black" points="574.367,-1207.47 584.82,-1205.74 575.571,-1200.57 574.367,-1207.47"/>
</g>
<!-- Shopware&#45;&gt;Yaml -->
<g id="edge274" class="edge"><title>Shopware&#45;&gt;Yaml</title>
<path fill="none" stroke="black" d="M409.176,-817.64C434.368,-836.517 472.554,-869.822 490,-909 538.924,-1018.87 448.301,-1357.2 526,-1449 542.902,-1468.97 571.598,-1475.69 595.97,-1477.43"/>
<polygon fill="black" stroke="black" points="595.953,-1480.93 606.104,-1477.9 596.275,-1473.94 595.953,-1480.93"/>
</g>
<!-- Shopware&#45;&gt;Config -->
<g id="edge256" class="edge"><title>Shopware&#45;&gt;Config</title>
<path fill="none" stroke="black" d="M406.442,-817.908C429.987,-837.512 467.438,-871.913 490,-909 516.296,-952.226 488.663,-982.853 526,-1017 542.585,-1032.17 566.092,-1039.27 587.456,-1042.45"/>
<polygon fill="black" stroke="black" points="587.055,-1045.92 597.409,-1043.68 587.913,-1038.98 587.055,-1045.92"/>
</g>
<!-- Shopware&#45;&gt;Console -->
<g id="edge258" class="edge"><title>Shopware&#45;&gt;Console</title>
<path fill="none" stroke="black" d="M438.328,-792.254C457.57,-786.359 477.585,-776.496 490,-760 542.47,-690.282 468.791,-434.885 526,-369 539.404,-353.563 559.858,-346.086 579.758,-342.698"/>
<polygon fill="black" stroke="black" points="580.336,-346.151 589.761,-341.312 579.375,-339.217 580.336,-346.151"/>
</g>
<!-- Shopware&#45;&gt;Filesystem -->
<g id="edge262" class="edge"><title>Shopware&#45;&gt;Filesystem</title>
<path fill="none" stroke="black" d="M438.696,-792.241C457.867,-786.346 477.735,-776.486 490,-760 549.219,-680.4 461.369,-390.272 526,-315 536.698,-302.54 551.988,-295.254 567.91,-291.118"/>
<polygon fill="black" stroke="black" points="568.852,-294.494 577.869,-288.931 567.351,-287.657 568.852,-294.494"/>
</g>
<!-- Shopware&#45;&gt;Finder -->
<g id="edge264" class="edge"><title>Shopware&#45;&gt;Finder</title>
<path fill="none" stroke="black" d="M438.772,-792.297C457.952,-786.409 477.807,-776.539 490,-760 555.972,-670.512 453.943,-345.664 526,-261 541.204,-243.136 565.848,-235.888 588.34,-233.316"/>
<polygon fill="black" stroke="black" points="588.818,-236.788 598.48,-232.443 588.217,-229.814 588.818,-236.788"/>
</g>
<!-- Propel -->
<g id="node191" class="node"><title>Propel</title>
<ellipse fill="none" stroke="black" cx="385" cy="-639" rx="41.2167" ry="18.3848"/>
<text text-anchor="middle" x="385" y="-635.4" font-family="Times Roman,serif" font-size="14.00">Propel</text>
</g>
<!-- Propel&#45;&gt;Validator -->
<g id="edge282" class="edge"><title>Propel&#45;&gt;Validator</title>
<path fill="none" stroke="black" d="M417.267,-650.369C441.694,-660.805 473.729,-678.819 490,-706 544.143,-796.448 457.519,-1098.86 526,-1179 538.264,-1193.35 556.621,-1200.85 575.041,-1204.57"/>
<polygon fill="black" stroke="black" points="574.502,-1208.03 584.943,-1206.23 575.659,-1201.12 574.502,-1208.03"/>
</g>
<!-- Propel&#45;&gt;Yaml -->
<g id="edge284" class="edge"><title>Propel&#45;&gt;Yaml</title>
<path fill="none" stroke="black" d="M417.473,-650.247C442.016,-660.616 474.105,-678.597 490,-706 531.471,-777.495 473.177,-1385.43 526,-1449 542.72,-1469.12 571.417,-1475.84 595.835,-1477.54"/>
<polygon fill="black" stroke="black" points="595.846,-1481.05 605.991,-1477.99 596.154,-1474.05 595.846,-1481.05"/>
</g>
<!-- Propel&#45;&gt;Console -->
<g id="edge276" class="edge"><title>Propel&#45;&gt;Console</title>
<path fill="none" stroke="black" d="M426.715,-638.789C448.65,-636.385 474.193,-629.554 490,-612 563.059,-530.868 452.168,-449.429 526,-369 539.767,-354.003 560.195,-346.606 579.971,-343.158"/>
<polygon fill="black" stroke="black" points="580.503,-346.618 589.903,-341.731 579.507,-339.689 580.503,-346.618"/>
</g>
<!-- Propel&#45;&gt;Filesystem -->
<g id="edge278" class="edge"><title>Propel&#45;&gt;Filesystem</title>
<path fill="none" stroke="black" d="M426.634,-638.979C448.684,-636.651 474.364,-629.832 490,-612 577.662,-512.023 437.385,-414.133 526,-315 536.888,-302.819 552.168,-295.624 568.011,-291.485"/>
<polygon fill="black" stroke="black" points="568.911,-294.871 577.914,-289.286 567.393,-288.037 568.911,-294.871"/>
</g>
<!-- Propel&#45;&gt;Finder -->
<g id="edge280" class="edge"><title>Propel&#45;&gt;Finder</title>
<path fill="none" stroke="black" d="M426.499,-639.117C448.648,-636.851 474.468,-630.046 490,-612 592.298,-493.142 422.57,-378.874 526,-261 541.414,-243.434 565.957,-236.197 588.329,-233.556"/>
<polygon fill="black" stroke="black" points="588.77,-237.03 598.415,-232.645 588.14,-230.059 588.77,-237.03"/>
</g>
<!-- Mautic -->
<g id="node197" class="node"><title>Mautic</title>
<ellipse fill="none" stroke="black" cx="385" cy="-936" rx="43.8406" ry="18.3848"/>
<text text-anchor="middle" x="385" y="-932.4" font-family="Times Roman,serif" font-size="14.00">Mautic</text>
</g>
<!-- Mautic&#45;&gt;ClassLoader -->
<g id="edge286" class="edge"><title>Mautic&#45;&gt;ClassLoader</title>
<path fill="none" stroke="black" d="M413.931,-949.874C438.603,-963.36 472.737,-986.295 490,-1017 525.503,-1080.15 477.99,-1286.75 526,-1341 535.22,-1351.42 547.651,-1358.2 560.919,-1362.54"/>
<polygon fill="black" stroke="black" points="560.12,-1365.95 570.694,-1365.28 562.013,-1359.21 560.12,-1365.95"/>
</g>
<!-- Mautic&#45;&gt;DependencyInjection -->
<g id="edge294" class="edge"><title>Mautic&#45;&gt;DependencyInjection</title>
<path fill="none" stroke="black" d="M414.048,-949.809C438.798,-963.251 472.978,-986.161 490,-1017 530.775,-1090.87 470.577,-1331.37 526,-1395 529.757,-1399.31 534.065,-1403 538.757,-1406.16"/>
<polygon fill="black" stroke="black" points="537.174,-1409.29 547.581,-1411.27 540.685,-1403.23 537.174,-1409.29"/>
</g>
<!-- Mautic&#45;&gt;EventDispatcher -->
<g id="edge296" class="edge"><title>Mautic&#45;&gt;EventDispatcher</title>
<path fill="none" stroke="black" d="M407.418,-920.202C432.219,-901.355 471.163,-867.4 490,-828 518.676,-768.019 481.693,-580.567 526,-531 531.748,-524.57 538.72,-519.529 546.353,-515.593"/>
<polygon fill="black" stroke="black" points="547.883,-518.743 555.582,-511.464 545.025,-512.353 547.883,-518.743"/>
</g>
<!-- Mautic&#45;&gt;HttpFoundation -->
<g id="edge302" class="edge"><title>Mautic&#45;&gt;HttpFoundation</title>
<path fill="none" stroke="black" d="M406.939,-919.963C431.301,-900.897 469.842,-866.741 490,-828 529.469,-752.144 466.89,-700.79 526,-639 532.505,-632.2 540.382,-626.976 548.923,-622.981"/>
<polygon fill="black" stroke="black" points="550.478,-626.127 558.417,-619.111 547.836,-619.644 550.478,-626.127"/>
</g>
<!-- Mautic&#45;&gt;HttpKernel -->
<g id="edge304" class="edge"><title>Mautic&#45;&gt;HttpKernel</title>
<path fill="none" stroke="black" d="M407.416,-920.379C434.401,-902.238 481.64,-872.564 526,-855 541.582,-848.83 558.944,-843.835 575.325,-839.898"/>
<polygon fill="black" stroke="black" points="576.415,-843.238 585.374,-837.582 574.843,-836.417 576.415,-843.238"/>
</g>
<!-- Mautic&#45;&gt;Routing -->
<g id="edge312" class="edge"><title>Mautic&#45;&gt;Routing</title>
<path fill="none" stroke="black" d="M400.49,-919.096C430.697,-886.494 497.047,-816.746 526,-801 543.342,-791.569 563.92,-785.408 582.788,-781.393"/>
<polygon fill="black" stroke="black" points="583.631,-784.795 592.767,-779.43 582.279,-777.926 583.631,-784.795"/>
</g>
<!-- Mautic&#45;&gt;Validator -->
<g id="edge320" class="edge"><title>Mautic&#45;&gt;Validator</title>
<path fill="none" stroke="black" d="M412.666,-950.079C436.847,-963.843 470.981,-987.078 490,-1017 529.565,-1079.25 474.21,-1126.49 526,-1179 538.954,-1192.14 557.04,-1199.35 574.994,-1203.2"/>
<polygon fill="black" stroke="black" points="574.457,-1206.66 584.922,-1205 575.709,-1199.77 574.457,-1206.66"/>
</g>
<!-- Mautic&#45;&gt;Yaml -->
<g id="edge322" class="edge"><title>Mautic&#45;&gt;Yaml</title>
<path fill="none" stroke="black" d="M414.137,-949.76C438.944,-963.171 473.161,-986.061 490,-1017 536.052,-1101.61 463.157,-1375.99 526,-1449 543.008,-1468.76 571.567,-1475.5 595.844,-1477.31"/>
<polygon fill="black" stroke="black" points="595.781,-1480.81 605.94,-1477.8 596.124,-1473.82 595.781,-1480.81"/>
</g>
<!-- Mautic&#45;&gt;Config -->
<g id="edge288" class="edge"><title>Mautic&#45;&gt;Config</title>
<path fill="none" stroke="black" d="M407.416,-951.621C434.401,-969.762 481.64,-999.436 526,-1017 546.384,-1025.07 569.813,-1031.13 590.109,-1035.44"/>
<polygon fill="black" stroke="black" points="589.6,-1038.91 600.098,-1037.48 590.999,-1032.05 589.6,-1038.91"/>
</g>
<!-- Mautic&#45;&gt;Console -->
<g id="edge290" class="edge"><title>Mautic&#45;&gt;Console</title>
<path fill="none" stroke="black" d="M407.722,-920.344C432.802,-901.626 472.001,-867.79 490,-828 532.167,-734.78 459.444,-446.707 526,-369 539.356,-353.406 559.904,-345.912 579.896,-342.555"/>
<polygon fill="black" stroke="black" points="580.507,-346.004 589.944,-341.188 579.564,-339.068 580.507,-346.004"/>
</g>
<!-- Mautic&#45;&gt;Debug -->
<g id="edge292" class="edge"><title>Mautic&#45;&gt;Debug</title>
<path fill="none" stroke="black" d="M407.55,-920.265C432.472,-901.475 471.527,-867.572 490,-828 523.168,-756.951 474.285,-535.937 526,-477 540.823,-460.107 564.09,-452.767 585.749,-449.88"/>
<polygon fill="black" stroke="black" points="586.295,-453.342 595.878,-448.823 585.569,-446.38 586.295,-453.342"/>
</g>
<!-- Mautic&#45;&gt;Finder -->
<g id="edge298" class="edge"><title>Mautic&#45;&gt;Finder</title>
<path fill="none" stroke="black" d="M407.83,-920.392C433.008,-901.719 472.298,-867.923 490,-828 541.177,-712.584 444.586,-357.497 526,-261 541.127,-243.07 565.763,-235.816 588.27,-233.257"/>
<polygon fill="black" stroke="black" points="588.753,-236.729 598.419,-232.391 588.157,-229.754 588.753,-236.729"/>
</g>
<!-- Mautic&#45;&gt;Process -->
<g id="edge310" class="edge"><title>Mautic&#45;&gt;Process</title>
<path fill="none" stroke="black" d="M407.956,-920.447C433.251,-901.825 472.647,-868.076 490,-828 524.606,-748.079 470.422,-112.053 526,-45 539.608,-28.5821 561.191,-21.0833 581.934,-17.9518"/>
<polygon fill="black" stroke="black" points="582.498,-21.4094 592.011,-16.7454 581.666,-14.459 582.498,-21.4094"/>
</g>
<!-- Mautic&#45;&gt;Translation -->
<g id="edge318" class="edge"><title>Mautic&#45;&gt;Translation</title>
<path fill="none" stroke="black" d="M408.899,-951.116C431.434,-966.096 465.339,-990.574 490,-1017 509.68,-1038.09 502.319,-1054.53 526,-1071 538.602,-1079.76 553.681,-1085.71 568.682,-1089.73"/>
<polygon fill="black" stroke="black" points="567.958,-1093.16 578.501,-1092.11 569.606,-1086.35 567.958,-1093.16"/>
</g>
<!-- Mautic&#45;&gt;Form -->
<g id="edge300" class="edge"><title>Mautic&#45;&gt;Form</title>
<path fill="none" stroke="black" d="M424.285,-927.681C470.978,-917.793 548.633,-901.348 596.929,-891.121"/>
<polygon fill="black" stroke="black" points="597.71,-894.533 606.767,-889.037 596.259,-887.685 597.71,-894.533"/>
</g>
<!-- Mautic&#45;&gt;Intl -->
<g id="edge306" class="edge"><title>Mautic&#45;&gt;Intl</title>
<path fill="none" stroke="black" d="M413.768,-949.967C438.333,-963.513 472.402,-986.486 490,-1017 550.483,-1121.87 444.782,-1197.22 526,-1287 544.626,-1307.59 575.8,-1313.9 600.845,-1315.3"/>
<polygon fill="black" stroke="black" points="601.042,-1318.81 611.149,-1315.63 601.266,-1311.81 601.042,-1318.81"/>
</g>
<!-- Mautic&#45;&gt;OptionsResolver -->
<g id="edge308" class="edge"><title>Mautic&#45;&gt;OptionsResolver</title>
<path fill="none" stroke="black" d="M424.285,-944.319C462.421,-952.395 521.208,-964.844 567.787,-974.708"/>
<polygon fill="black" stroke="black" points="567.322,-978.187 577.83,-976.835 568.772,-971.339 567.322,-978.187"/>
</g>
<!-- Mautic&#45;&gt;Security -->
<g id="edge314" class="edge"><title>Mautic&#45;&gt;Security</title>
<path fill="none" stroke="black" d="M429.126,-936C469.944,-936 531.062,-936 577.008,-936"/>
<polygon fill="black" stroke="black" points="577.157,-939.5 587.157,-936 577.157,-932.5 577.157,-939.5"/>
</g>
<!-- Mautic&#45;&gt;Templating -->
<g id="edge316" class="edge"><title>Mautic&#45;&gt;Templating</title>
<path fill="none" stroke="black" d="M413.528,-950.108C437.935,-963.747 471.907,-986.777 490,-1017 539.991,-1100.5 459.54,-1161.9 526,-1233 536.596,-1244.34 551.001,-1251.31 566.003,-1255.52"/>
<polygon fill="black" stroke="black" points="565.372,-1258.97 575.914,-1257.91 567.01,-1252.16 565.372,-1258.97"/>
</g>
<!-- freepost -->
<g id="node217" class="node"><title>freepost</title>
<ellipse fill="none" stroke="black" cx="122" cy="-517" rx="50.9117" ry="18.3848"/>
<text text-anchor="middle" x="122" y="-513.4" font-family="Times Roman,serif" font-size="14.00">freepost</text>
</g>
<!-- freepost&#45;&gt;Symfony Full Stack -->
<g id="edge324" class="edge"><title>freepost&#45;&gt;Symfony Full Stack</title>
<path fill="none" stroke="black" d="M173.207,-516.79C197.437,-519.316 225.126,-526.388 244,-544 285.333,-582.57 246.017,-620.82 280,-666 294.485,-685.257 316.254,-700.444 336.222,-711.456"/>
<polygon fill="black" stroke="black" points="334.761,-714.642 345.237,-716.221 338.032,-708.454 334.761,-714.642"/>
</g>
<!-- Codeception -->
<g id="node219" class="node"><title>Codeception</title>
<ellipse fill="none" stroke="black" cx="385" cy="-234" rx="70.9184" ry="18.3848"/>
<text text-anchor="middle" x="385" y="-230.4" font-family="Times Roman,serif" font-size="14.00">Codeception</text>
</g>
<!-- Codeception&#45;&gt;EventDispatcher -->
<g id="edge334" class="edge"><title>Codeception&#45;&gt;EventDispatcher</title>
<path fill="none" stroke="black" d="M453.121,-239.555C466.977,-243.707 480.268,-250.387 490,-261 555.777,-332.731 459.54,-405.901 526,-477 531.94,-483.354 539.076,-488.339 546.844,-492.235"/>
<polygon fill="black" stroke="black" points="545.654,-495.534 556.219,-496.324 548.453,-489.118 545.654,-495.534"/>
</g>
<!-- Codeception&#45;&gt;Yaml -->
<g id="edge338" class="edge"><title>Codeception&#45;&gt;Yaml</title>
<path fill="none" stroke="black" d="M454.209,-238.624C468.01,-242.821 481.005,-249.756 490,-261 572.493,-364.125 442.524,-1346.67 526,-1449 542.593,-1469.34 571.43,-1476.03 595.949,-1477.67"/>
<polygon fill="black" stroke="black" points="596.009,-1481.18 606.144,-1478.09 596.295,-1474.18 596.009,-1481.18"/>
</g>
<!-- Codeception&#45;&gt;BrowserKit -->
<g id="edge326" class="edge"><title>Codeception&#45;&gt;BrowserKit</title>
<path fill="none" stroke="black" d="M440.017,-222.349C480.545,-213.767 535.705,-202.086 577.829,-193.166"/>
<polygon fill="black" stroke="black" points="578.636,-196.572 587.694,-191.077 577.186,-189.724 578.636,-196.572"/>
</g>
<!-- Codeception&#45;&gt;Console -->
<g id="edge328" class="edge"><title>Codeception&#45;&gt;Console</title>
<path fill="none" stroke="black" d="M448.51,-242.455C463.048,-246.454 477.797,-252.339 490,-261 513.522,-277.695 502.319,-298.531 526,-315 541.994,-326.123 561.979,-332.703 580.729,-336.581"/>
<polygon fill="black" stroke="black" points="580.22,-340.046 590.689,-338.422 581.491,-333.163 580.22,-340.046"/>
</g>
<!-- Codeception&#45;&gt;CssSelector -->
<g id="edge330" class="edge"><title>Codeception&#45;&gt;CssSelector</title>
<path fill="none" stroke="black" d="M448.51,-225.545C463.048,-221.546 477.797,-215.661 490,-207 513.522,-190.305 502.319,-169.469 526,-153 537.939,-144.697 552.102,-138.926 566.315,-134.92"/>
<polygon fill="black" stroke="black" points="567.309,-138.278 576.136,-132.419 565.581,-131.495 567.309,-138.278"/>
</g>
<!-- Codeception&#45;&gt;DomCrawler -->
<g id="edge332" class="edge"><title>Codeception&#45;&gt;DomCrawler</title>
<path fill="none" stroke="black" d="M451.668,-227.354C465.676,-223.263 479.399,-216.883 490,-207 527.008,-172.498 488.663,-133.147 526,-99 535.568,-90.2494 547.44,-84.1826 559.876,-80.0057"/>
<polygon fill="black" stroke="black" points="560.871,-83.3613 569.466,-77.1668 558.884,-76.6492 560.871,-83.3613"/>
</g>
<!-- Codeception&#45;&gt;Finder -->
<g id="edge336" class="edge"><title>Codeception&#45;&gt;Finder</title>
<path fill="none" stroke="black" d="M456.71,-234C498.452,-234 550.131,-234 587.963,-234"/>
<polygon fill="black" stroke="black" points="588.247,-237.5 598.247,-234 588.246,-230.5 588.247,-237.5"/>
</g>
</g>
</svg>
